<svg width="24" height="25" viewBox="0 0 24 25" fill="none" xmlns="http://www.w3.org/2000/svg">
<path opacity="0.4" d="M11.9972 17.9895C12.8974 17.9895 13.6272 17.2597 13.6272 16.3595C13.6272 15.4593 12.8974 14.7295 11.9972 14.7295C11.097 14.7295 10.3672 15.4593 10.3672 16.3595C10.3672 17.2597 11.097 17.9895 11.9972 17.9895Z" fill="#233043"/>
<path d="M16.65 10.0796H7.35C3.25 10.0796 2 11.3296 2 15.4296V17.2896C2 21.3896 3.25 22.6396 7.35 22.6396H16.65C20.75 22.6396 22 21.3896 22 17.2896V15.4296C22 11.3296 20.75 10.0796 16.65 10.0796ZM12 19.3796C10.33 19.3796 8.98 18.0196 8.98 16.3596C8.98 14.6996 10.33 13.3396 12 13.3396C13.67 13.3396 15.02 14.6996 15.02 16.3596C15.02 18.0196 13.67 19.3796 12 19.3796Z" fill="#233043"/>
<path opacity="0.4" d="M7.11875 10.0896V8.91965C7.11875 5.98965 7.94875 4.03965 11.9988 4.03965C16.0488 4.03965 16.8787 5.98965 16.8787 8.91965V10.0896C17.3887 10.0996 17.8488 10.1196 18.2788 10.1796V8.91965C18.2788 6.21965 17.6288 2.63965 11.9988 2.63965C6.36875 2.63965 5.71875 6.21965 5.71875 8.91965V10.1696C6.13875 10.1196 6.60875 10.0896 7.11875 10.0896Z" fill="#233043"/>
</svg>
