<svg width="254" height="76" viewBox="0 0 254 76" fill="none" xmlns="http://www.w3.org/2000/svg">
<path d="M67.8257 39.4844C66.7572 36.1685 65.6255 32.7618 64.4306 29.2641C63.2357 25.7665 62.0711 22.3937 60.9368 19.1455C59.7971 15.8955 58.7108 13.0162 57.6779 10.5075C57.4108 9.70033 56.7502 9.10612 55.6959 8.72482C54.5843 8.33758 53.4138 8.14676 52.2368 8.16089C51.2836 8.16316 50.3347 8.28802 49.4134 8.53239C48.6979 8.70024 48.0002 8.93652 47.3299 9.23797C46.6176 11.0768 45.8002 13.2282 44.8778 15.6924C43.9553 18.1566 42.9919 20.7241 41.9876 23.395C40.9814 26.0677 40.018 28.7011 39.0974 31.2954C38.1767 33.8896 37.3371 36.295 36.5785 38.5115C35.8181 40.7298 35.1948 42.6007 34.7087 44.1241C34.527 44.7067 34.3614 45.2332 34.2038 45.7036C34.0511 46.1475 33.9717 46.6133 33.9688 47.0827C33.9687 48.068 34.3249 48.8075 35.0372 49.301C35.8359 49.8177 36.774 50.0761 37.7244 50.0414C38.2555 50.0505 38.7858 49.994 39.3031 49.873C39.7269 49.7607 40.1409 49.6369 40.5451 49.5015C40.7232 48.7888 40.9903 47.9148 41.3465 46.8796C41.7026 45.8444 42.0722 44.7468 42.455 43.5869C42.8361 42.4216 43.2056 41.2786 43.5635 40.1579L43.8868 39.1476H60.4025L62.9882 47.0159C63.2998 48.0476 63.7361 48.8093 64.2971 49.301C64.858 49.7928 65.7181 50.0414 66.8854 50.0414C67.6687 50.0538 68.4462 49.9046 69.1693 49.603C69.7677 49.3655 70.2988 48.9846 70.7159 48.4939C69.8629 45.8052 68.8995 42.802 67.8257 39.4844V39.4844ZM45.4627 33.5003L47.5329 27.5162C48.3823 25.0521 49.222 22.6538 50.0518 20.3215C50.8816 17.9891 51.5868 15.9722 52.1673 14.2706H52.5039C52.999 15.7049 53.6035 17.4982 54.3176 19.6506C55.0317 21.803 55.8046 24.1113 56.6362 26.5755C57.4055 28.8668 58.1454 31.1751 58.8559 33.5003H45.4627Z" fill="#003647"/>
<path d="M94.703 45.9895C94.703 47.1547 94.1101 48.1178 92.9241 48.8786C91.7381 49.6394 89.9573 50.0207 87.5817 50.0225C84.2214 50.0225 81.5449 49.2715 79.5522 47.7695C77.5596 46.2674 76.5623 43.7908 76.5605 40.3395V8.94116C76.874 8.85385 77.3192 8.74249 77.8961 8.60708C78.5096 8.46833 79.137 8.40018 79.7659 8.40396C81.0125 8.40396 81.942 8.65073 82.5546 9.14428C83.1672 9.63783 83.4762 10.4681 83.4815 11.6352V18.2901H93.899C94.1177 18.6471 94.2875 19.0318 94.4039 19.434C94.562 19.9336 94.6413 20.4548 94.6389 20.9788C94.6389 21.9231 94.4261 22.6296 94.0005 23.0982C93.7729 23.3378 93.4959 23.5251 93.1887 23.6469C92.8815 23.7688 92.5515 23.8223 92.2215 23.8038H83.4815V39.9386C83.4815 41.5422 83.9516 42.6852 84.8919 43.3676C85.8321 44.05 87.1544 44.3859 88.8586 44.3752C89.6706 44.3605 90.4778 44.2475 91.2626 44.0384C92.0318 43.8635 92.7765 43.5942 93.4797 43.2366C93.8182 43.5836 94.102 43.9801 94.3211 44.4126C94.5709 44.9021 94.6974 45.4452 94.6897 45.9948" fill="#003647"/>
<path d="M184.318 28.3153V49.4934C183.91 49.6712 183.481 49.7961 183.041 49.8649C182.443 49.9772 181.836 50.0336 181.227 50.0333C179.926 50.0333 178.973 49.7865 178.369 49.2929C177.766 48.7985 177.464 47.994 177.464 46.8715V28.5852C177.464 26.6128 176.904 25.1553 175.784 24.2128C174.664 23.2702 173.162 22.7998 171.28 22.8016C169.897 22.7981 168.53 23.0964 167.273 23.6756C166.261 24.1351 165.321 24.7391 164.482 25.4689C164.666 26.2473 164.756 27.045 164.749 27.8449V49.4934C164.341 49.6716 163.912 49.7965 163.472 49.8649C162.856 49.9786 162.23 50.0349 161.602 50.0333C160.303 50.0333 159.351 49.7865 158.747 49.2929C158.141 48.7985 157.839 47.994 157.839 46.8715V28.5852C157.839 26.6128 157.268 25.1553 156.127 24.2128C154.985 23.2702 153.496 22.7998 151.658 22.8016C150.433 22.7969 149.217 23.0021 148.062 23.4083C147.062 23.7409 146.103 24.1894 145.207 24.7446V49.4854C144.783 49.6529 144.344 49.7774 143.895 49.8569C143.286 49.9724 142.667 50.0288 142.047 50.0252C140.794 50.0252 139.851 49.7767 139.226 49.2849C138.601 48.7931 138.286 47.986 138.286 46.8635V24.6163C138.256 23.7436 138.477 22.8807 138.924 22.1308C139.442 21.3674 140.118 20.7247 140.906 20.2465C142.429 19.296 144.081 18.5713 145.811 18.0951C147.752 17.5168 149.766 17.2224 151.791 17.2211C153.854 17.1902 155.905 17.5437 157.839 18.2634C159.276 18.791 160.579 19.6308 161.653 20.7223C162.828 19.8457 164.096 19.1034 165.436 18.5093C167.316 17.6594 169.511 17.2336 172.02 17.2318C174.194 17.1943 176.353 17.5942 178.369 18.4078C180.164 19.1405 181.69 20.4087 182.739 22.0399C183.788 23.6756 184.314 25.7709 184.318 28.326" fill="#003647"/>
<path d="M219.225 33.0885C219.759 32.554 220.026 31.7246 220.026 30.6003C220.071 28.0843 219.445 25.6018 218.212 23.4082C217.018 21.3168 215.259 19.6043 213.137 18.4664C210.966 17.278 208.473 16.6838 205.658 16.6838C203.593 16.6656 201.543 17.028 199.61 17.7528C197.769 18.4438 196.097 19.5209 194.706 20.9119C193.261 22.3838 192.137 24.1392 191.405 26.0674C190.562 28.3122 190.151 30.6963 190.195 33.0938C190.195 36.7714 190.912 39.8753 192.347 42.4054C193.733 44.8952 195.857 46.8928 198.427 48.1222C201.048 49.3997 204.084 50.0385 207.533 50.0385C209.447 50.0604 211.356 49.834 213.212 49.365C214.889 48.9195 216.225 48.2959 217.219 47.4941C218.212 46.6923 218.702 45.7863 218.688 44.776C218.69 44.1571 218.514 43.5506 218.183 43.0281C217.857 42.5017 217.408 42.0631 216.874 41.7506C215.705 42.5341 214.44 43.163 213.11 43.6214C211.451 44.2248 209.697 44.5253 207.931 44.5087C204.795 44.5087 202.264 43.7132 200.337 42.1221C198.811 40.8624 197.781 39.1011 197.246 36.8382L216.949 34.0293C217.932 33.9411 218.696 33.6257 219.233 33.0885H219.225ZM196.808 31.8136C196.94 28.7846 197.785 26.4309 199.343 24.7525C200.128 23.8805 201.092 23.1884 202.169 22.7234C203.246 22.2584 204.41 22.0316 205.583 22.0585C208.046 22.0585 209.95 22.7712 211.297 24.1966C212.637 25.6242 213.423 27.4839 213.514 29.4403L196.808 31.8136Z" fill="#003647"/>
<path d="M130.383 24.5145C130.153 24.0842 129.902 23.6726 129.64 23.2744C129.565 23.3225 129.491 23.3706 129.413 23.416C128.51 23.9026 127.5 24.1573 126.475 24.1573C125.449 24.1573 124.44 23.9026 123.537 23.416C122.658 22.9177 121.942 22.175 121.477 21.2779C121.002 20.3527 120.764 19.3244 120.783 18.2845C120.783 17.9078 120.812 17.5316 120.871 17.1593C119.463 16.8326 118.023 16.673 116.578 16.6836C113.396 16.6836 110.607 17.3669 108.212 18.7335C105.831 20.0871 103.884 22.0926 102.603 24.5145C101.258 27.009 100.586 29.9569 100.586 33.3583C100.586 36.7597 101.247 39.7067 102.568 42.1994C103.829 44.6249 105.764 46.6336 108.14 47.983C110.535 49.3496 113.324 50.033 116.506 50.033C119.733 50.033 122.533 49.3496 124.907 47.983C127.272 46.6252 129.188 44.6032 130.417 42.1673C131.716 39.6568 132.365 36.7169 132.365 33.3476C132.365 29.9408 131.704 26.9929 130.383 24.5038V24.5145ZM122.957 41.4805C121.39 43.4565 119.24 44.4427 116.506 44.4391C113.728 44.4391 111.567 43.4645 110.023 41.5152C108.479 39.566 107.706 36.8434 107.705 33.3476C107.705 29.8945 108.5 27.1827 110.09 25.212C111.68 23.2414 113.817 22.2552 116.501 22.2534C119.279 22.2534 121.441 23.2396 122.986 25.212C124.532 27.1845 125.305 29.8963 125.305 33.3476C125.305 36.7989 124.52 39.5098 122.952 41.4805" fill="#003647"/>
<path d="M130.264 18.2957C130.279 19.026 130.119 19.7494 129.796 20.4045C129.502 20.9864 129.044 21.4695 128.479 21.7942C127.861 22.1163 127.173 22.2845 126.476 22.2845C125.778 22.2845 125.091 22.1163 124.473 21.7942C123.903 21.4723 123.44 20.9924 123.137 20.4125C122.807 19.7567 122.644 19.0297 122.661 18.2957C122.644 17.5617 122.81 16.835 123.145 16.1817C123.45 15.6035 123.913 15.1243 124.481 14.7999C125.093 14.462 125.784 14.2923 126.484 14.3081C127.175 14.2932 127.857 14.463 128.461 14.7999C129.029 15.1226 129.493 15.6023 129.796 16.1817C130.126 16.8366 130.289 17.5627 130.272 18.2957" fill="#51BBA0"/>
<path d="M81.1776 65.7272C81.1441 65.7291 81.1106 65.7239 81.0792 65.712C81.0479 65.7 81.0194 65.6816 80.9957 65.6579C80.972 65.6342 80.9536 65.6057 80.9416 65.5743C80.9297 65.5429 80.9245 65.5094 80.9265 65.4759V57.8989C80.924 57.865 80.9283 57.831 80.9394 57.7988C80.9504 57.7667 80.9678 57.7371 80.9906 57.7119C81.0144 57.6904 81.0422 57.6739 81.0725 57.6633C81.1028 57.6527 81.1349 57.6484 81.1669 57.6504C81.1984 57.6486 81.2301 57.6531 81.2599 57.6636C81.2897 57.6742 81.3171 57.6906 81.3405 57.7119C81.3633 57.7371 81.3807 57.7667 81.3917 57.7988C81.4027 57.831 81.4071 57.865 81.4046 57.8989V65.2835H85.4915C85.5586 65.2779 85.6254 65.298 85.6785 65.3396C85.6999 65.3601 85.7166 65.3851 85.7272 65.4129C85.7378 65.4406 85.7422 65.4704 85.7399 65.5C85.7426 65.5308 85.7385 65.5619 85.7279 65.591C85.7173 65.6201 85.7004 65.6465 85.6785 65.6684C85.6258 65.7109 85.559 65.732 85.4915 65.7272H81.1776Z" fill="#818EA4"/>
<path d="M88.4436 65.818C88.1096 65.823 87.7792 65.7488 87.4793 65.6015C87.205 65.4694 86.9701 65.2676 86.7982 65.0162C86.6258 64.7486 86.5385 64.4351 86.5475 64.117C86.5566 63.7988 86.6617 63.4908 86.8489 63.2335C87.1292 62.9609 87.4918 62.789 87.88 62.7444C88.5467 62.6369 89.2216 62.5895 89.8967 62.6028H90.3615V63.0224H89.9181C89.336 63.0123 88.754 63.0444 88.1765 63.1186C87.8609 63.1426 87.5601 63.2619 87.3137 63.4607C87.2288 63.5527 87.1635 63.6611 87.1217 63.7791C87.0799 63.8972 87.0626 64.0226 87.0707 64.1476C87.0651 64.3146 87.0961 64.4809 87.1616 64.6346C87.2272 64.7884 87.3256 64.9259 87.45 65.0375C87.7346 65.2808 88.1019 65.4052 88.4757 65.385C88.8009 65.3891 89.1199 65.296 89.3919 65.1177C89.655 64.9455 89.8679 64.7067 90.0089 64.4255C90.1646 64.1176 90.2425 63.7763 90.236 63.4313V62.1484C90.2726 61.7261 90.1602 61.3043 89.9181 60.9564C89.7868 60.8215 89.6271 60.7177 89.4505 60.6525C89.274 60.5873 89.0851 60.5624 88.8977 60.5796C88.6038 60.5785 88.3112 60.6209 88.0296 60.7052C87.7258 60.7993 87.4344 60.9294 87.1615 61.0927C87.1092 61.1265 87.0473 61.1424 86.9852 61.1381C86.9386 61.1324 86.8957 61.1095 86.865 61.074C86.8337 61.0383 86.8125 60.995 86.8035 60.9484C86.7875 60.9025 86.7875 60.8526 86.8035 60.8067C86.8249 60.7579 86.8627 60.7182 86.9104 60.6945C87.498 60.3336 88.1735 60.1413 88.863 60.1386C89.2197 60.1261 89.5742 60.1994 89.8967 60.3524C90.1688 60.496 90.383 60.7292 90.5031 61.0125C90.649 61.3728 90.7173 61.7599 90.7034 62.1484V65.5453C90.7076 65.6108 90.6877 65.6754 90.6473 65.7271C90.6256 65.7502 90.599 65.7682 90.5694 65.7798C90.5398 65.7914 90.5081 65.7962 90.4764 65.7939C90.4439 65.7964 90.4113 65.7917 90.3808 65.7802C90.3503 65.7686 90.3228 65.7505 90.3001 65.7271C90.2569 65.6766 90.234 65.6118 90.236 65.5453V64.3507H90.3615C90.2944 64.6383 90.1629 64.907 89.9769 65.1364C89.7973 65.3541 89.5696 65.527 89.3118 65.6416C89.0381 65.761 88.7422 65.8211 88.4436 65.818V65.818Z" fill="#818EA4"/>
<path d="M95.6491 67.8389C95.6157 67.8403 95.5825 67.834 95.5519 67.8206C95.5214 67.8071 95.4943 67.7869 95.4728 67.7614C95.4295 67.7109 95.4067 67.6461 95.4087 67.5796V60.4116C95.4046 60.3424 95.4276 60.2744 95.4728 60.2218C95.4962 60.2006 95.5236 60.1842 95.5534 60.1736C95.5832 60.163 95.6148 60.1585 95.6464 60.1604C95.6784 60.1583 95.7105 60.1627 95.7407 60.1733C95.771 60.1838 95.7989 60.2004 95.8227 60.2218C95.8678 60.2744 95.8908 60.3424 95.8868 60.4116V61.6597H95.7612C95.8735 61.2146 96.1358 60.8219 96.5038 60.5479C96.8928 60.2701 97.3616 60.1266 97.8394 60.139C98.2945 60.1271 98.7434 60.2468 99.1322 60.4838C99.503 60.7235 99.7969 61.0649 99.979 61.4673C100.19 61.9421 100.293 62.4578 100.281 62.9773C100.293 63.4945 100.191 64.008 99.9843 64.482C99.8067 64.8878 99.513 65.2318 99.1403 65.4709C98.7486 65.7083 98.2972 65.8289 97.8394 65.8184C97.3604 65.8306 96.8909 65.684 96.5038 65.4014C96.1382 65.1274 95.8764 64.7373 95.7612 64.295H95.8868V67.5903C95.8888 67.6568 95.8659 67.7216 95.8227 67.7721C95.8003 67.7951 95.7732 67.8131 95.7432 67.8246C95.7132 67.8361 95.6811 67.841 95.6491 67.8389V67.8389ZM97.8421 65.3747C98.2102 65.3827 98.5728 65.2843 98.8865 65.0914C99.1903 64.8897 99.4274 64.6023 99.5676 64.2656C99.7352 63.8573 99.8162 63.4186 99.8054 62.9773C99.8426 62.3437 99.6532 61.7174 99.2711 61.2107C99.0963 61.0027 98.876 60.8376 98.6273 60.7283C98.3786 60.6189 98.1081 60.5682 97.8367 60.58C97.4734 60.5733 97.1161 60.6727 96.8083 60.866C96.5035 61.0629 96.2658 61.3482 96.1272 61.6838C95.9564 62.0931 95.8745 62.534 95.8868 62.9773C95.8481 63.6112 96.0376 64.2379 96.421 64.744C96.5949 64.9497 96.813 65.1133 97.0592 65.2226C97.3053 65.3318 97.573 65.3839 97.8421 65.3747V65.3747Z" fill="#818EA4"/>
<path d="M103.36 65.818C103.152 65.8298 102.945 65.7943 102.754 65.7142C102.562 65.6341 102.391 65.5115 102.254 65.3556C101.972 64.9878 101.832 64.5302 101.861 64.0674V57.8989C101.857 57.831 101.879 57.7641 101.923 57.7119C101.971 57.6692 102.034 57.6472 102.099 57.6504C102.131 57.6484 102.163 57.6527 102.193 57.6633C102.224 57.6739 102.251 57.6904 102.275 57.7119C102.298 57.7371 102.315 57.7667 102.326 57.7988C102.337 57.831 102.342 57.865 102.339 57.8989V63.9872C102.311 64.3538 102.405 64.7195 102.606 65.0269C102.702 65.145 102.825 65.2383 102.965 65.2987C103.104 65.3592 103.256 65.3852 103.408 65.3744C103.472 65.3776 103.536 65.3776 103.6 65.3744C103.653 65.3703 103.707 65.3703 103.76 65.3744C103.81 65.3726 103.859 65.3846 103.902 65.4091C103.921 65.4259 103.935 65.4472 103.944 65.4709C103.953 65.4947 103.956 65.5203 103.953 65.5454C103.956 65.579 103.952 65.613 103.94 65.6445C103.927 65.6761 103.908 65.7044 103.883 65.7271C103.816 65.7742 103.74 65.8053 103.659 65.818L103.504 65.8341L103.36 65.818Z" fill="#818EA4"/>
<path d="M106.639 65.8179C106.305 65.8221 105.975 65.748 105.675 65.6014C105.401 65.4693 105.166 65.2675 104.994 65.0161C104.828 64.7736 104.741 64.4865 104.743 64.1929C104.722 63.8469 104.83 63.5054 105.045 63.2334C105.325 62.9604 105.689 62.7883 106.078 62.7444C106.744 62.6368 107.418 62.5894 108.092 62.6027H108.562V63.0223H108.122C107.539 63.0122 106.956 63.0444 106.377 63.1185C106.062 63.1425 105.761 63.2618 105.515 63.4606C105.43 63.5527 105.364 63.661 105.323 63.7791C105.281 63.8972 105.263 64.0225 105.272 64.1475C105.266 64.3146 105.297 64.4808 105.363 64.6346C105.428 64.7884 105.526 64.9259 105.651 65.0375C105.936 65.2811 106.305 65.4055 106.679 65.3849C107.004 65.3886 107.322 65.2956 107.593 65.1177C107.857 64.9455 108.07 64.7067 108.213 64.4254C108.367 64.1172 108.445 63.7761 108.44 63.4312V62.1483C108.475 61.7262 108.362 61.3048 108.122 60.9563C107.99 60.8216 107.83 60.7178 107.653 60.6526C107.476 60.5875 107.286 60.5625 107.099 60.5795C106.805 60.5787 106.512 60.621 106.231 60.7051C105.927 60.7997 105.636 60.9298 105.362 61.0926C105.31 61.1264 105.248 61.1424 105.186 61.1381C105.14 61.131 105.098 61.1084 105.066 61.0739C105.035 61.0383 105.013 60.9949 105.004 60.9483C104.992 60.8986 104.997 60.846 105.019 60.7996C105.041 60.7532 105.078 60.716 105.125 60.6944C105.424 60.5093 105.749 60.368 106.089 60.2748C106.411 60.1854 106.743 60.1396 107.077 60.1385C107.433 60.1263 107.787 60.1996 108.108 60.3523C108.381 60.4955 108.597 60.7287 108.717 61.0125C108.861 61.3734 108.928 61.7601 108.915 62.1483V65.5453C108.919 65.6107 108.899 65.6754 108.859 65.727C108.837 65.7503 108.811 65.7684 108.781 65.78C108.751 65.7916 108.72 65.7963 108.688 65.7939C108.656 65.7958 108.623 65.7909 108.593 65.7794C108.562 65.7679 108.535 65.75 108.512 65.727C108.469 65.6762 108.448 65.6114 108.45 65.5453V64.3506H108.562C108.493 64.6381 108.361 64.9065 108.175 65.1364C107.996 65.3533 107.769 65.5262 107.513 65.6415C107.237 65.7611 106.94 65.8212 106.639 65.8179Z" fill="#818EA4"/>
<path d="M112.747 65.8181C112.415 65.8291 112.086 65.7525 111.793 65.5963C111.538 65.4507 111.335 65.228 111.214 64.9602C111.078 64.6431 111.012 64.3002 111.022 63.9552V60.6385H110.1C110.034 60.6419 109.97 60.621 109.918 60.5797C109.897 60.5614 109.881 60.5388 109.869 60.5134C109.858 60.4881 109.852 60.4605 109.852 60.4327C109.852 60.4048 109.858 60.3773 109.869 60.352C109.881 60.3266 109.897 60.304 109.918 60.2857C109.97 60.2453 110.035 60.2254 110.1 60.2296H111.022V58.6955C111.018 58.6617 111.022 58.6277 111.033 58.5956C111.044 58.5634 111.061 58.5337 111.083 58.5084C111.132 58.4655 111.194 58.4419 111.259 58.4419C111.324 58.4419 111.387 58.4655 111.436 58.5084C111.479 58.5606 111.501 58.6275 111.497 58.6955V60.2296H113.121C113.188 60.224 113.255 60.244 113.308 60.2857C113.328 60.3049 113.343 60.3277 113.354 60.353C113.364 60.3782 113.37 60.4053 113.37 60.4327C113.37 60.4601 113.364 60.4872 113.354 60.5124C113.343 60.5377 113.328 60.5605 113.308 60.5797C113.255 60.6223 113.189 60.6433 113.121 60.6385H111.5V63.8457C111.473 64.2447 111.577 64.6415 111.796 64.9762C111.917 65.1158 112.07 65.2243 112.241 65.2927C112.413 65.3611 112.598 65.3873 112.782 65.3691C112.914 65.3718 113.047 65.3546 113.174 65.3183C113.26 65.2863 113.35 65.2691 113.442 65.2675C113.464 65.2674 113.486 65.2724 113.507 65.2821C113.527 65.2918 113.545 65.306 113.559 65.3236C113.596 65.3678 113.614 65.4242 113.61 65.4813C113.61 65.5229 113.601 65.5639 113.583 65.6016C113.572 65.6232 113.557 65.6421 113.538 65.6569C113.519 65.6717 113.497 65.682 113.474 65.6871C113.369 65.7252 113.261 65.7539 113.15 65.7727C113.018 65.8009 112.883 65.8161 112.747 65.8181V65.8181Z" fill="#818EA4"/>
<path d="M116.687 65.8182C116.195 65.8309 115.71 65.7129 115.279 65.4761C114.886 65.249 114.569 64.9117 114.365 64.506C114.139 64.0376 114.028 63.5215 114.042 63.0013C114.03 62.4803 114.141 61.9638 114.365 61.4939C114.567 61.0788 114.883 60.7304 115.276 60.4902C115.67 60.2499 116.124 60.128 116.585 60.1389C116.911 60.1322 117.234 60.1941 117.533 60.3206C117.805 60.4377 118.045 60.6161 118.236 60.8418C118.439 61.0848 118.589 61.3668 118.679 61.6703C118.785 62.0284 118.837 62.4006 118.832 62.7741C118.838 62.8521 118.816 62.9299 118.77 62.9932C118.747 63.0191 118.718 63.0393 118.685 63.0523C118.653 63.0652 118.618 63.0706 118.583 63.0681H114.349V62.6485H118.583L118.391 62.7848C118.401 62.3796 118.331 61.9764 118.185 61.5981C118.064 61.289 117.853 61.0236 117.579 60.8364C117.278 60.6491 116.928 60.5561 116.574 60.5691C116.178 60.5566 115.788 60.6658 115.455 60.8818C115.147 61.091 114.907 61.3854 114.763 61.7291C114.603 62.1131 114.524 62.5263 114.531 62.9425V63.0013C114.49 63.6356 114.691 64.2619 115.092 64.7545C115.294 64.9658 115.539 65.1307 115.81 65.2378C116.082 65.3448 116.374 65.3915 116.665 65.3746C116.953 65.3766 117.239 65.3361 117.515 65.2543C117.801 65.163 118.067 65.0188 118.3 64.8294C118.345 64.7879 118.402 64.7617 118.463 64.7545C118.515 64.75 118.568 64.7622 118.613 64.7893C118.651 64.8147 118.682 64.8497 118.703 64.8908C118.719 64.9367 118.719 64.9866 118.703 65.0325C118.682 65.0935 118.642 65.1461 118.589 65.1821C118.332 65.3891 118.04 65.5467 117.726 65.6472C117.391 65.7592 117.04 65.8169 116.687 65.8182V65.8182Z" fill="#818EA4"/>
<path d="M120.807 65.7943C120.775 65.7962 120.743 65.7913 120.712 65.7798C120.682 65.7683 120.654 65.7504 120.631 65.7274C120.589 65.6766 120.567 65.6118 120.57 65.5457V60.6387H119.672C119.607 60.6422 119.542 60.6212 119.491 60.5799C119.47 60.5616 119.453 60.539 119.441 60.5137C119.43 60.4883 119.424 60.4608 119.424 60.4329C119.424 60.4051 119.43 60.3775 119.441 60.3522C119.453 60.3268 119.47 60.3042 119.491 60.2859C119.542 60.2456 119.607 60.2256 119.672 60.2298H120.682L120.57 60.3527V59.877C120.535 59.3206 120.702 58.7703 121.04 58.3269C121.221 58.1327 121.44 57.9768 121.683 57.8685C121.925 57.7601 122.187 57.7015 122.453 57.6961L122.749 57.6721C122.8 57.664 122.852 57.6745 122.896 57.7015C122.931 57.7249 122.957 57.7585 122.971 57.7977C122.982 57.8371 122.982 57.8786 122.971 57.918C122.959 57.9586 122.937 57.9954 122.907 58.0249C122.877 58.0559 122.838 58.0758 122.795 58.081L122.432 58.1157C122.231 58.1205 122.034 58.168 121.853 58.2551C121.673 58.3422 121.513 58.4669 121.384 58.6209C121.141 58.9924 121.024 59.4334 121.053 59.877V60.3875L120.962 60.2298H122.506C122.574 60.2242 122.64 60.2443 122.693 60.2859C122.714 60.3047 122.73 60.3274 122.741 60.3527C122.752 60.378 122.757 60.4053 122.757 60.4329C122.757 60.4605 122.752 60.4878 122.741 60.5131C122.73 60.5384 122.714 60.5612 122.693 60.5799C122.641 60.6225 122.574 60.6435 122.506 60.6387H121.053V65.5457C121.045 65.7114 120.968 65.7943 120.807 65.7943Z" fill="#818EA4"/>
<path d="M125.746 65.8183C125.288 65.8295 124.836 65.7069 124.445 65.4655C124.073 65.2241 123.777 64.8809 123.593 64.4766C123.383 64.0052 123.281 63.4931 123.294 62.9772C123.289 62.5807 123.346 62.1857 123.462 61.8066C123.567 61.4786 123.735 61.1743 123.956 60.9113C124.169 60.6637 124.435 60.4673 124.734 60.3367C125.054 60.2007 125.399 60.1334 125.746 60.1389C126.204 60.1277 126.654 60.2493 127.044 60.489C127.418 60.7296 127.714 61.073 127.896 61.4779C128.107 61.949 128.21 62.4612 128.198 62.9772C128.203 63.374 128.145 63.769 128.027 64.1479C127.924 64.4769 127.756 64.7822 127.533 65.0459C127.322 65.2919 127.058 65.4874 126.761 65.6178C126.441 65.7556 126.095 65.824 125.746 65.8183V65.8183ZM125.746 65.3746C126.114 65.3826 126.477 65.2842 126.791 65.0913C127.094 64.8896 127.331 64.6022 127.472 64.2655C127.639 63.8572 127.72 63.4185 127.709 62.9772C127.747 62.3436 127.557 61.7173 127.175 61.2106C127 61.0026 126.78 60.8375 126.531 60.7282C126.283 60.6188 126.012 60.5681 125.741 60.5799C125.372 60.57 125.009 60.6695 124.696 60.8659C124.392 61.0628 124.154 61.3481 124.015 61.6837C123.844 62.093 123.763 62.5339 123.775 62.9772C123.736 63.6111 123.926 64.2378 124.309 64.7439C124.485 64.9518 124.705 65.1167 124.954 65.2261C125.204 65.3354 125.474 65.3862 125.746 65.3746V65.3746Z" fill="#818EA4"/>
<path d="M130.002 65.7942C129.97 65.7961 129.937 65.7912 129.907 65.7797C129.876 65.7682 129.849 65.7503 129.826 65.7273C129.783 65.6765 129.762 65.6117 129.764 65.5456V60.4114C129.76 60.3426 129.782 60.2746 129.826 60.2217C129.874 60.179 129.938 60.157 130.002 60.1602C130.033 60.1578 130.065 60.162 130.094 60.1726C130.124 60.1832 130.15 60.1999 130.173 60.2217C130.215 60.2754 130.235 60.3433 130.229 60.4114V61.5126H130.117C130.244 61.0886 130.515 60.7226 130.884 60.4782C131.263 60.2318 131.708 60.1051 132.16 60.1148C132.222 60.1135 132.282 60.1273 132.337 60.1549C132.362 60.1708 132.382 60.1936 132.395 60.2206C132.408 60.2475 132.412 60.2776 132.409 60.3072C132.413 60.371 132.393 60.4342 132.353 60.4836C132.327 60.5082 132.297 60.5275 132.264 60.5403C132.231 60.5532 132.196 60.5593 132.16 60.5584H132.024C131.532 60.5811 131.065 60.7836 130.713 61.1277C130.552 61.3011 130.428 61.5049 130.347 61.727C130.266 61.9492 130.231 62.1852 130.242 62.4213V65.5349C130.246 65.6007 130.225 65.6654 130.184 65.7166C130.162 65.7429 130.134 65.7636 130.102 65.777C130.071 65.7905 130.036 65.7964 130.002 65.7942V65.7942Z" fill="#818EA4"/>
<path d="M133.739 65.7945C133.706 65.797 133.674 65.7923 133.643 65.7808C133.613 65.7692 133.585 65.7511 133.563 65.7277C133.519 65.6772 133.497 65.6124 133.498 65.5459V60.4118C133.494 60.3426 133.517 60.2745 133.563 60.222C133.586 60.2005 133.614 60.184 133.645 60.1734C133.675 60.1629 133.707 60.1585 133.739 60.1605C133.77 60.1583 133.801 60.1627 133.83 60.1733C133.859 60.1839 133.885 60.2005 133.907 60.222C133.949 60.2757 133.97 60.3437 133.963 60.4118V61.569H133.84C133.945 61.1453 134.189 60.769 134.532 60.5C134.875 60.2516 135.29 60.1238 135.713 60.1365C136.135 60.1133 136.551 60.2402 136.888 60.4946C137.202 60.7741 137.402 61.1595 137.449 61.577H137.281C137.389 61.1558 137.639 60.7849 137.989 60.5267C138.356 60.2608 138.801 60.1237 139.255 60.1365C139.603 60.1235 139.948 60.2038 140.254 60.369C140.523 60.5291 140.734 60.7719 140.855 61.0612C141.003 61.4312 141.073 61.828 141.061 62.2265V65.5432C141.063 65.6097 141.04 65.6745 140.996 65.725C140.974 65.7484 140.946 65.7665 140.916 65.7781C140.885 65.7896 140.853 65.7943 140.82 65.7918C140.788 65.7941 140.756 65.7893 140.726 65.7778C140.696 65.7662 140.669 65.7482 140.647 65.725C140.603 65.6745 140.58 65.6097 140.582 65.5432V62.2746C140.617 61.8238 140.507 61.3737 140.27 60.9891C140.142 60.8433 139.98 60.7302 139.8 60.6591C139.619 60.588 139.424 60.5609 139.231 60.5801C138.996 60.5703 138.762 60.6131 138.546 60.7057C138.331 60.7982 138.138 60.9379 137.983 61.1147C137.656 61.5242 137.491 62.0397 137.519 62.5632V65.5406C137.521 65.607 137.498 65.6718 137.454 65.7223C137.432 65.7455 137.405 65.7635 137.375 65.7751C137.345 65.7866 137.313 65.7914 137.281 65.7891C137.248 65.7916 137.216 65.787 137.185 65.7754C137.155 65.7639 137.127 65.7457 137.105 65.7223C137.061 65.6718 137.039 65.607 137.04 65.5406V62.2746C137.075 61.8238 136.965 61.3737 136.728 60.9891C136.6 60.8433 136.438 60.7302 136.258 60.6591C136.077 60.588 135.882 60.5609 135.689 60.5801C135.454 60.5703 135.22 60.6131 135.004 60.7057C134.789 60.7982 134.596 60.9379 134.441 61.1147C134.114 61.5242 133.949 62.0397 133.977 62.5632V65.5406C133.977 65.7116 133.897 65.7945 133.739 65.7945Z" fill="#818EA4"/>
<path d="M145.269 65.8182C144.777 65.8309 144.292 65.7129 143.861 65.4761C143.468 65.249 143.151 64.9117 142.947 64.506C142.722 64.0371 142.611 63.5214 142.624 63.0013C142.613 62.4805 142.724 61.9643 142.947 61.4939C143.148 61.0788 143.465 60.7304 143.858 60.4902C144.252 60.2499 144.706 60.128 145.167 60.1389C145.492 60.1319 145.816 60.1939 146.115 60.3206C146.387 60.4383 146.628 60.6166 146.82 60.8418C147.021 61.0857 147.171 61.3674 147.261 61.6703C147.369 62.028 147.422 62.4004 147.416 62.7741C147.422 62.8525 147.399 62.9303 147.352 62.9932C147.329 63.0194 147.3 63.0398 147.267 63.0528C147.235 63.0658 147.2 63.071 147.165 63.0681H142.931V62.6485H147.165L146.973 62.7848C146.983 62.3796 146.913 61.9764 146.767 61.5981C146.647 61.2884 146.436 61.0227 146.161 60.8364C145.86 60.6491 145.51 60.5561 145.156 60.5691C144.772 60.5525 144.392 60.655 144.067 60.8626C143.743 61.0702 143.491 61.3728 143.345 61.7291C143.185 62.1131 143.105 62.5263 143.113 62.9425V63.0013C143.072 63.6356 143.272 64.2619 143.674 64.7545C143.876 64.9657 144.121 65.1304 144.392 65.2375C144.664 65.3446 144.956 65.3913 145.247 65.3746C145.536 65.3765 145.823 65.336 146.099 65.2543C146.385 65.1632 146.65 65.019 146.882 64.8294C146.928 64.7874 146.986 64.7611 147.048 64.7545C147.099 64.7504 147.15 64.7625 147.194 64.7893C147.233 64.8147 147.264 64.8497 147.285 64.8908C147.303 64.9364 147.303 64.9869 147.285 65.0325C147.264 65.0935 147.224 65.1461 147.17 65.1821C146.914 65.3899 146.622 65.5476 146.308 65.6472C145.973 65.7594 145.622 65.8172 145.269 65.8182V65.8182Z" fill="#818EA4"/>
<path d="M156 67.8386C155.967 67.8411 155.935 67.8364 155.904 67.8249C155.874 67.8133 155.846 67.7952 155.823 67.7718C155.78 67.7213 155.757 67.6565 155.759 67.59V64.2866H155.885C155.777 64.7307 155.516 65.1225 155.148 65.3931C154.755 65.6776 154.28 65.8242 153.796 65.81C153.338 65.8206 152.887 65.7 152.495 65.4626C152.122 65.2242 151.828 64.88 151.651 64.4737C151.444 63.9997 151.343 63.4862 151.355 62.969C151.342 62.4495 151.445 61.9337 151.656 61.459C151.839 61.0552 152.135 60.7133 152.508 60.4754C152.896 60.2397 153.343 60.1201 153.796 60.1307C154.28 60.1179 154.754 60.2633 155.148 60.5449C155.518 60.8155 155.78 61.2099 155.885 61.6567H155.759V60.4113C155.755 60.3421 155.778 60.2741 155.823 60.2215C155.847 60.2 155.875 60.1835 155.905 60.173C155.936 60.1624 155.968 60.158 156 60.1601C156.031 60.1582 156.063 60.1627 156.093 60.1733C156.122 60.1838 156.15 60.2002 156.173 60.2215C156.218 60.2741 156.241 60.3421 156.237 60.4113V67.59C156.239 67.6565 156.217 67.7213 156.173 67.7718C156.151 67.795 156.124 67.813 156.094 67.8245C156.064 67.8361 156.032 67.8409 156 67.8386V67.8386ZM153.807 65.3744C154.175 65.3827 154.538 65.2843 154.851 65.0911C155.156 64.891 155.394 64.6031 155.532 64.2653C155.701 63.8573 155.782 63.4184 155.77 62.977C155.807 62.3434 155.618 61.7171 155.236 61.2104C155.06 61.0023 154.84 60.8373 154.59 60.7279C154.341 60.6186 154.07 60.5679 153.799 60.5797C153.43 60.5713 153.067 60.6706 152.754 60.8656C152.451 61.0641 152.213 61.3489 152.073 61.6835C151.905 62.0934 151.824 62.534 151.835 62.977C151.797 63.6109 151.986 64.2376 152.37 64.7437C152.545 64.9519 152.766 65.1171 153.015 65.2264C153.264 65.3358 153.535 65.3864 153.807 65.3744V65.3744Z" fill="#818EA4"/>
<path d="M160.087 65.8182C159.716 65.8299 159.349 65.7471 159.018 65.5776C158.731 65.4214 158.504 65.1741 158.372 64.8747C158.217 64.5083 158.143 64.1125 158.156 63.7148V60.4114C158.151 60.3426 158.173 60.2746 158.217 60.2216C158.267 60.1817 158.329 60.16 158.393 60.16C158.457 60.16 158.52 60.1817 158.57 60.2216C158.614 60.2746 158.636 60.3426 158.631 60.4114V63.6693C158.596 64.1258 158.72 64.5804 158.984 64.9549C159.126 65.1035 159.3 65.2183 159.493 65.2909C159.686 65.3635 159.892 65.3921 160.098 65.3745C160.346 65.3823 160.594 65.3373 160.824 65.2424C161.055 65.1475 161.262 65.0049 161.433 64.8239C161.788 64.4273 161.973 63.9071 161.949 63.3754V60.4114C161.945 60.3422 161.968 60.2742 162.013 60.2216C162.037 60.2001 162.065 60.1836 162.095 60.1731C162.125 60.1625 162.157 60.1581 162.189 60.1602C162.254 60.1569 162.317 60.179 162.365 60.2216C162.41 60.2746 162.432 60.3426 162.427 60.4114V65.5455C162.427 65.7112 162.352 65.7941 162.2 65.7941C162.167 65.7961 162.135 65.7911 162.105 65.7796C162.074 65.7681 162.047 65.7503 162.024 65.7273C161.981 65.6764 161.959 65.6116 161.962 65.5455V64.3509H162.098C161.98 64.7923 161.711 65.1783 161.337 65.4413C160.97 65.6943 160.533 65.8261 160.087 65.8182Z" fill="#818EA4"/>
<path d="M164.594 58.7307C164.541 58.7347 164.488 58.7271 164.437 58.7085C164.387 58.6899 164.342 58.6607 164.304 58.6229C164.266 58.5851 164.237 58.5396 164.218 58.4894C164.2 58.4393 164.192 58.3858 164.196 58.3324C164.192 58.2791 164.2 58.2255 164.218 58.1753C164.237 58.125 164.266 58.0793 164.303 58.0411C164.385 57.9737 164.489 57.9393 164.594 57.9449C164.701 57.9372 164.807 57.9718 164.888 58.0411C164.924 58.08 164.952 58.1259 164.97 58.1761C164.987 58.2262 164.994 58.2795 164.99 58.3324C164.993 58.3849 164.985 58.4374 164.968 58.4869C164.95 58.5364 164.923 58.582 164.888 58.6211C164.85 58.6591 164.804 58.6885 164.753 58.7074C164.702 58.7263 164.648 58.7342 164.594 58.7307V58.7307ZM164.594 65.7597C164.562 65.7623 164.529 65.7576 164.499 65.746C164.468 65.7345 164.441 65.7163 164.418 65.6929C164.375 65.6424 164.352 65.5776 164.354 65.5112V60.4331C164.351 60.3992 164.356 60.3652 164.367 60.333C164.378 60.3009 164.395 60.2713 164.418 60.2461C164.442 60.2246 164.47 60.2081 164.5 60.1975C164.53 60.1869 164.562 60.1825 164.594 60.1846C164.659 60.1814 164.722 60.2034 164.771 60.2461C164.814 60.2983 164.836 60.3652 164.832 60.4331V65.5112C164.836 65.5766 164.816 65.6413 164.776 65.6929C164.753 65.7171 164.724 65.7356 164.693 65.7472C164.661 65.7588 164.628 65.7631 164.594 65.7597V65.7597Z" fill="#818EA4"/>
<path d="M169.791 65.7943C169.759 65.7963 169.726 65.7913 169.696 65.7798C169.665 65.7683 169.638 65.7505 169.615 65.7275C169.573 65.6766 169.551 65.6118 169.553 65.5457V60.4116C169.549 60.3428 169.571 60.2748 169.615 60.2218C169.663 60.1792 169.727 60.1571 169.791 60.1604C169.822 60.1583 169.854 60.1627 169.883 60.1732C169.912 60.1838 169.939 60.2004 169.962 60.2218C170.004 60.2756 170.024 60.3435 170.018 60.4116V61.5688H169.893C170.019 61.1309 170.296 60.752 170.675 60.4998C171.059 60.2565 171.506 60.1319 171.96 60.1416C172.338 60.1281 172.714 60.206 173.055 60.3688C173.345 60.5184 173.575 60.7626 173.707 61.061C173.863 61.431 173.937 61.8304 173.923 62.2317V65.5484C173.926 65.6145 173.904 65.6793 173.862 65.7302C173.839 65.7531 173.811 65.771 173.781 65.7825C173.751 65.794 173.718 65.7989 173.686 65.797C173.653 65.7995 173.62 65.7948 173.59 65.7832C173.56 65.7717 173.532 65.7536 173.509 65.7302C173.466 65.6797 173.443 65.6149 173.445 65.5484V62.2744C173.483 61.8181 173.36 61.3628 173.095 60.9889C172.947 60.8419 172.769 60.729 172.573 60.6584C172.377 60.5878 172.168 60.561 171.96 60.58C171.702 60.5673 171.444 60.6083 171.203 60.7003C170.962 60.7923 170.742 60.9333 170.558 61.1145C170.376 61.3078 170.235 61.5357 170.144 61.7845C170.052 62.0334 170.011 62.2981 170.023 62.5631V65.5404C170.029 65.7114 169.949 65.7943 169.791 65.7943Z" fill="#818EA4"/>
<path d="M177.92 65.8183C177.461 65.8295 177.009 65.7069 176.619 65.4655C176.247 65.2239 175.953 64.8807 175.77 64.4766C175.558 64.0058 175.455 63.4934 175.468 62.9772C175.462 62.5804 175.52 62.1853 175.639 61.8066C175.741 61.4776 175.909 61.173 176.133 60.9113C176.345 60.6629 176.611 60.4663 176.91 60.3367C177.229 60.2005 177.573 60.1331 177.92 60.1389C178.377 60.1277 178.828 60.2493 179.218 60.489C179.592 60.7296 179.887 61.073 180.07 61.4779C180.281 61.949 180.384 62.4612 180.372 62.9772C180.378 63.3741 180.32 63.7693 180.201 64.1479C180.098 64.4774 179.93 64.7828 179.707 65.0459C179.496 65.2927 179.232 65.4883 178.935 65.6178C178.615 65.7559 178.269 65.8242 177.92 65.8183V65.8183ZM177.92 65.3746C178.288 65.3826 178.651 65.2842 178.964 65.0913C179.268 64.8896 179.505 64.6022 179.646 64.2655C179.813 63.8572 179.894 63.4185 179.883 62.9772C179.921 62.3436 179.731 61.7173 179.349 61.2106C179.174 61.0025 178.953 60.8375 178.704 60.7281C178.455 60.6188 178.184 60.5681 177.912 60.5799C177.543 60.5712 177.18 60.6706 176.868 60.8659C176.563 61.0628 176.325 61.3481 176.186 61.6837C176.017 62.0932 175.936 62.5341 175.949 62.9772C175.91 63.6111 176.1 64.2378 176.483 64.7439C176.659 64.9515 176.88 65.1162 177.129 65.2255C177.378 65.3348 177.648 65.3858 177.92 65.3746V65.3746Z" fill="#818EA4"/>
<path d="M183.858 65.8182C183.488 65.8297 183.12 65.7469 182.79 65.5776C182.503 65.4214 182.275 65.1741 182.144 64.8747C181.988 64.5083 181.914 64.1125 181.927 63.7148V60.4114C181.922 60.3426 181.944 60.2746 181.989 60.2216C182.039 60.1817 182.101 60.16 182.165 60.16C182.229 60.16 182.291 60.1817 182.341 60.2216C182.385 60.2746 182.407 60.3426 182.403 60.4114V63.6693C182.367 64.1258 182.492 64.5804 182.755 64.9549C182.898 65.1035 183.072 65.2183 183.265 65.2909C183.457 65.3635 183.664 65.3921 183.869 65.3745C184.118 65.3823 184.366 65.3373 184.596 65.2424C184.826 65.1475 185.034 65.0049 185.205 64.8239C185.56 64.4276 185.746 63.9075 185.723 63.3754V60.4114C185.718 60.3426 185.74 60.2746 185.784 60.2216C185.808 60.2001 185.836 60.1836 185.866 60.1731C185.897 60.1625 185.929 60.1581 185.961 60.1602C186.025 60.1569 186.088 60.179 186.137 60.2216C186.181 60.2746 186.203 60.3426 186.198 60.4114V65.5455C186.198 65.7112 186.124 65.7941 185.971 65.7941C185.939 65.7961 185.906 65.7911 185.876 65.7796C185.846 65.7681 185.818 65.7503 185.795 65.7273C185.753 65.6764 185.731 65.6116 185.734 65.5455V64.3509H185.87C185.752 64.7923 185.482 65.1783 185.109 65.4413C184.741 65.6943 184.304 65.8261 183.858 65.8182Z" fill="#818EA4"/>
<path d="M189.839 65.8181C189.497 65.8183 189.157 65.7678 188.829 65.6685C188.484 65.5611 188.161 65.3918 187.876 65.1687C187.84 65.1402 187.813 65.1009 187.801 65.0564C187.79 65.0116 187.79 64.9649 187.801 64.9201C187.813 64.8746 187.837 64.8331 187.87 64.7999C187.887 64.7831 187.906 64.77 187.928 64.7613C187.949 64.7525 187.973 64.7484 187.996 64.7491C188.051 64.7515 188.105 64.7711 188.148 64.8052C188.407 65.0038 188.699 65.1541 189.011 65.2489C189.291 65.3311 189.582 65.3734 189.874 65.3745C190.271 65.3988 190.665 65.2999 191.004 65.0912C191.128 65.0055 191.23 64.8899 191.298 64.755C191.367 64.6201 191.401 64.4701 191.396 64.3188C191.401 64.2036 191.379 64.0889 191.333 63.9834C191.287 63.8778 191.217 63.7841 191.129 63.7094C190.886 63.5292 190.604 63.4067 190.307 63.3513L189.364 63.1241C188.971 63.055 188.606 62.8741 188.314 62.6029C188.201 62.481 188.113 62.3379 188.056 62.182C187.999 62.026 187.973 61.8602 187.98 61.6942C187.974 61.4029 188.059 61.117 188.223 60.8764C188.398 60.6361 188.638 60.4507 188.915 60.3419C189.245 60.2079 189.598 60.1424 189.954 60.1494C190.28 60.1474 190.604 60.2007 190.913 60.3071C191.206 60.4042 191.472 60.568 191.69 60.7855C191.732 60.8233 191.762 60.8726 191.776 60.9272C191.788 60.9735 191.788 61.0225 191.776 61.0688C191.762 61.1114 191.734 61.1475 191.696 61.1704C191.656 61.1942 191.61 61.2045 191.565 61.1998C191.508 61.1907 191.454 61.1646 191.412 61.125C191.209 60.9485 190.974 60.8117 190.721 60.7214C190.472 60.6353 190.211 60.5911 189.949 60.5904C189.569 60.57 189.193 60.6762 188.88 60.8924C188.756 60.9854 188.657 61.1068 188.59 61.2463C188.523 61.3859 188.491 61.5395 188.495 61.6942C188.49 61.8088 188.509 61.9232 188.549 62.0304C188.59 62.1375 188.653 62.2351 188.733 62.317C188.95 62.5077 189.215 62.6345 189.5 62.6831L190.44 62.9103C190.844 62.9895 191.222 63.1656 191.543 63.4234C191.661 63.5336 191.754 63.6675 191.816 63.8163C191.878 63.9651 191.908 64.1255 191.904 64.2867C191.909 64.5029 191.861 64.7171 191.764 64.9102C191.666 65.1033 191.523 65.2692 191.346 65.3932C190.904 65.6962 190.374 65.8456 189.839 65.8181V65.8181Z" fill="#818EA4"/>
<path d="M198.649 65.7942C198.616 65.7962 198.584 65.7912 198.553 65.7797C198.523 65.7682 198.495 65.7503 198.472 65.7274C198.43 65.6765 198.408 65.6117 198.411 65.5456V60.4115C198.406 60.3426 198.428 60.2747 198.472 60.2217C198.521 60.1791 198.584 60.157 198.649 60.1602C198.68 60.1578 198.711 60.1621 198.741 60.1726C198.77 60.1832 198.797 60.2 198.819 60.2217C198.862 60.2755 198.882 60.3434 198.876 60.4115V61.5126H198.763C198.89 61.0886 199.161 60.7226 199.53 60.4783C199.909 60.2315 200.354 60.1048 200.807 60.1148C200.868 60.1135 200.929 60.1273 200.983 60.1549C201.008 60.1709 201.028 60.1936 201.041 60.2206C201.054 60.2476 201.059 60.2776 201.055 60.3072C201.06 60.3711 201.04 60.4342 200.999 60.4836C200.974 60.5082 200.944 60.5275 200.911 60.5404C200.877 60.5532 200.842 60.5594 200.807 60.5585H200.671C200.178 60.5811 199.712 60.7837 199.359 61.1277C199.198 61.301 199.074 61.5047 198.992 61.7268C198.911 61.9489 198.875 62.185 198.886 62.4213V65.5349C198.89 65.6003 198.871 65.665 198.83 65.7167C198.808 65.7428 198.78 65.7633 198.748 65.7768C198.717 65.7902 198.683 65.7962 198.649 65.7942V65.7942Z" fill="#51BBA0"/>
<path d="M204.347 65.8184C203.856 65.8314 203.37 65.7134 202.94 65.4763C202.546 65.2507 202.228 64.913 202.026 64.5061C201.799 64.0379 201.687 63.5219 201.7 63.0014C201.689 62.4803 201.8 61.9638 202.026 61.494C202.226 61.0784 202.541 60.7293 202.935 60.4889C203.328 60.2485 203.782 60.127 204.243 60.139C204.569 60.1318 204.892 60.1938 205.192 60.3207C205.464 60.4371 205.705 60.6155 205.897 60.8419C206.098 61.0862 206.248 61.3678 206.34 61.6704C206.446 62.0286 206.497 62.4007 206.492 62.7742C206.498 62.8522 206.476 62.9296 206.431 62.9934C206.407 63.0196 206.378 63.04 206.345 63.053C206.312 63.066 206.277 63.0712 206.241 63.0682H202.008V62.6486H206.241L206.049 62.7849C206.06 62.3799 205.991 61.9767 205.846 61.5983C205.725 61.2884 205.513 61.0227 205.237 60.8366C204.936 60.649 204.587 60.5559 204.233 60.5693C203.848 60.5527 203.468 60.6551 203.144 60.8627C202.82 61.0703 202.567 61.3729 202.422 61.7292C202.261 62.1132 202.182 62.5264 202.189 62.9426V63.0014C202.148 63.6362 202.349 64.2631 202.753 64.7547C202.954 64.9659 203.199 65.1308 203.47 65.2378C203.741 65.3449 204.032 65.3916 204.323 65.3747C204.612 65.3767 204.899 65.3362 205.175 65.2545C205.461 65.1633 205.726 65.0192 205.958 64.8295C206.004 64.788 206.062 64.7618 206.124 64.7547C206.175 64.7505 206.227 64.7627 206.271 64.7894C206.31 64.8136 206.342 64.8489 206.361 64.891C206.379 64.9366 206.379 64.987 206.361 65.0326C206.341 65.0931 206.301 65.1454 206.249 65.1823C205.993 65.3889 205.7 65.5465 205.386 65.6473C205.051 65.7592 204.701 65.8169 204.347 65.8184V65.8184Z" fill="#51BBA0"/>
<path d="M209.5 65.818C209.293 65.8298 209.086 65.7943 208.894 65.7142C208.703 65.6341 208.532 65.5115 208.394 65.3556C208.112 64.9878 207.973 64.5302 208.002 64.0674V57.8989C207.998 57.831 208.02 57.7641 208.063 57.7119C208.112 57.6692 208.175 57.6472 208.24 57.6504C208.272 57.6484 208.304 57.6527 208.334 57.6633C208.364 57.6739 208.392 57.6904 208.416 57.7119C208.439 57.7371 208.456 57.7667 208.467 57.7988C208.478 57.831 208.482 57.865 208.48 57.8989V63.9872C208.451 64.3538 208.545 64.7195 208.747 65.0269C208.843 65.145 208.966 65.2383 209.105 65.2987C209.245 65.3592 209.397 65.3852 209.548 65.3744C209.612 65.3776 209.677 65.3776 209.741 65.3744C209.794 65.3703 209.848 65.3703 209.901 65.3744C209.95 65.3726 209.999 65.3846 210.043 65.4091C210.061 65.4259 210.076 65.4472 210.085 65.4709C210.094 65.4947 210.097 65.5203 210.093 65.5454C210.097 65.5788 210.092 65.6125 210.081 65.6439C210.069 65.6754 210.051 65.7039 210.027 65.7271C209.959 65.7746 209.881 65.8057 209.799 65.818L209.645 65.8341L209.5 65.818Z" fill="#51BBA0"/>
<path d="M211.364 58.7307C211.311 58.7338 211.257 58.7256 211.208 58.7067C211.158 58.6878 211.113 58.6585 211.075 58.6209C211.038 58.5833 211.009 58.5382 210.99 58.4884C210.971 58.4387 210.963 58.3855 210.966 58.3324C210.962 58.2789 210.97 58.2252 210.989 58.1749C211.008 58.1247 211.037 58.0791 211.075 58.0411C211.156 57.9741 211.259 57.9397 211.364 57.9449C211.47 57.9372 211.576 57.9718 211.658 58.0411C211.694 58.0798 211.722 58.1257 211.74 58.1758C211.758 58.226 211.765 58.2793 211.762 58.3324C211.764 58.385 211.756 58.4377 211.738 58.4872C211.721 58.5367 211.693 58.5823 211.658 58.6211C211.619 58.6591 211.573 58.6885 211.522 58.7074C211.472 58.7263 211.418 58.7342 211.364 58.7307V58.7307ZM211.364 65.7597C211.331 65.7617 211.299 65.7568 211.268 65.7453C211.238 65.7337 211.21 65.7159 211.187 65.6929C211.145 65.642 211.123 65.5773 211.126 65.5112V60.4331C211.122 60.3652 211.144 60.2983 211.187 60.2461C211.237 60.2062 211.3 60.1844 211.364 60.1844C211.428 60.1844 211.49 60.2062 211.54 60.2461C211.584 60.2983 211.605 60.3652 211.601 60.4331V65.5112C211.606 65.5766 211.586 65.6413 211.545 65.6929C211.522 65.7171 211.494 65.7356 211.462 65.7472C211.431 65.7588 211.397 65.7631 211.364 65.7597V65.7597Z" fill="#51BBA0"/>
<path d="M215.812 65.8182C215.32 65.8313 214.835 65.7132 214.404 65.4761C214.011 65.249 213.694 64.9117 213.49 64.506C213.264 64.0376 213.153 63.5215 213.167 63.0013C213.155 62.4803 213.266 61.9638 213.49 61.4939C213.692 61.0788 214.008 60.7304 214.401 60.4902C214.795 60.2499 215.249 60.128 215.71 60.1389C216.036 60.1322 216.359 60.1941 216.658 60.3206C216.93 60.4377 217.17 60.6161 217.361 60.8418C217.563 61.0855 217.713 61.3672 217.804 61.6703C217.91 62.0284 217.962 62.4006 217.957 62.7741C217.962 62.852 217.94 62.9294 217.895 62.9932C217.872 63.0191 217.843 63.0393 217.81 63.0523C217.778 63.0652 217.743 63.0706 217.708 63.0681H213.474V62.6485H217.708L217.513 62.7848C217.524 62.3797 217.455 61.9766 217.31 61.5981C217.189 61.289 216.978 61.0236 216.704 60.8364C216.402 60.6488 216.052 60.5557 215.697 60.5691C215.301 60.557 214.912 60.6661 214.58 60.8818C214.272 61.091 214.032 61.3854 213.888 61.7291C213.726 62.1125 213.646 62.526 213.653 62.9425V63.0013C213.613 63.6359 213.815 64.2623 214.217 64.7545C214.418 64.9657 214.663 65.1306 214.934 65.2377C215.205 65.3448 215.497 65.3915 215.788 65.3746C216.076 65.3768 216.363 65.3363 216.64 65.2543C216.925 65.1632 217.191 65.019 217.422 64.8294C217.469 64.7878 217.526 64.7617 217.588 64.7545C217.639 64.75 217.691 64.7622 217.735 64.7893C217.775 64.8134 217.806 64.8487 217.826 64.8908C217.843 64.9364 217.843 64.9869 217.826 65.0325C217.808 65.0943 217.768 65.1474 217.714 65.1821C217.457 65.3888 217.164 65.5464 216.851 65.6472C216.516 65.759 216.165 65.8168 215.812 65.8182V65.8182Z" fill="#51BBA0"/>
</svg>
