<svg width="114" height="46" viewBox="0 0 114 46" fill="none" xmlns="http://www.w3.org/2000/svg">
<path d="M33.7909 8.0393H31.3589L30.9109 9.2793H30.1429L32.1589 3.7353H32.9989L35.0069 9.2793H34.2389L33.7909 8.0393ZM33.5829 7.4473L32.5749 4.6313L31.5669 7.4473H33.5829ZM38.7463 5.7033C38.8903 5.45263 39.1037 5.24463 39.3863 5.0793C39.6743 4.90863 40.0077 4.8233 40.3863 4.8233C40.7757 4.8233 41.1277 4.91663 41.4423 5.1033C41.7623 5.28996 42.013 5.55396 42.1943 5.8953C42.3757 6.2313 42.4663 6.6233 42.4663 7.0713C42.4663 7.51396 42.3757 7.90863 42.1943 8.2553C42.013 8.60196 41.7623 8.8713 41.4423 9.0633C41.1277 9.2553 40.7757 9.3513 40.3863 9.3513C40.013 9.3513 39.6823 9.26863 39.3943 9.1033C39.1117 8.93263 38.8957 8.72196 38.7463 8.4713V11.3593H38.0183V4.8953H38.7463V5.7033ZM41.7223 7.0713C41.7223 6.74063 41.6557 6.45263 41.5223 6.2073C41.389 5.96196 41.2077 5.7753 40.9783 5.6473C40.7543 5.5193 40.5063 5.4553 40.2343 5.4553C39.9677 5.4553 39.7197 5.52196 39.4903 5.6553C39.2663 5.7833 39.085 5.97263 38.9463 6.2233C38.813 6.46863 38.7463 6.75396 38.7463 7.0793C38.7463 7.40996 38.813 7.70063 38.9463 7.9513C39.085 8.19663 39.2663 8.38596 39.4903 8.5193C39.7197 8.6473 39.9677 8.7113 40.2343 8.7113C40.5063 8.7113 40.7543 8.6473 40.9783 8.5193C41.2077 8.38596 41.389 8.19663 41.5223 7.9513C41.6557 7.70063 41.7223 7.4073 41.7223 7.0713ZM44.1526 3.3593V9.2793H43.4246V3.3593H44.1526ZM45.1213 7.0713C45.1213 6.6233 45.212 6.2313 45.3933 5.8953C45.5747 5.55396 45.8227 5.28996 46.1373 5.1033C46.4573 4.91663 46.812 4.8233 47.2013 4.8233C47.5853 4.8233 47.9187 4.90596 48.2013 5.0713C48.484 5.23663 48.6947 5.44463 48.8333 5.6953V4.8953H49.5693V9.2793H48.8333V8.4633C48.6893 8.7193 48.4733 8.93263 48.1853 9.1033C47.9027 9.26863 47.572 9.3513 47.1933 9.3513C46.804 9.3513 46.452 9.2553 46.1373 9.0633C45.8227 8.8713 45.5747 8.60196 45.3933 8.2553C45.212 7.90863 45.1213 7.51396 45.1213 7.0713ZM48.8333 7.0793C48.8333 6.74863 48.7667 6.46063 48.6333 6.2153C48.5 5.96996 48.3187 5.7833 48.0893 5.6553C47.8653 5.52196 47.6173 5.4553 47.3453 5.4553C47.0733 5.4553 46.8253 5.5193 46.6013 5.6473C46.3773 5.7753 46.1987 5.96196 46.0653 6.2073C45.932 6.45263 45.8653 6.74063 45.8653 7.0713C45.8653 7.4073 45.932 7.70063 46.0653 7.9513C46.1987 8.19663 46.3773 8.38596 46.6013 8.5193C46.8253 8.6473 47.0733 8.7113 47.3453 8.7113C47.6173 8.7113 47.8653 8.6473 48.0893 8.5193C48.3187 8.38596 48.5 8.19663 48.6333 7.9513C48.7667 7.70063 48.8333 7.40996 48.8333 7.0793ZM51.6876 5.4953V8.0793C51.6876 8.29263 51.7329 8.44463 51.8236 8.5353C51.9143 8.62063 52.0716 8.6633 52.2956 8.6633H52.8316V9.2793H52.1756C51.7703 9.2793 51.4663 9.18596 51.2636 8.9993C51.0609 8.81263 50.9596 8.50596 50.9596 8.0793V5.4953H50.3916V4.8953H50.9596V3.7913H51.6876V4.8953H52.8316V5.4953H51.6876ZM55.4977 5.4953H54.5777V9.2793H53.8497V5.4953H53.2817V4.8953H53.8497V4.5833C53.8497 4.09263 53.975 3.7353 54.2257 3.5113C54.4817 3.28196 54.8897 3.1673 55.4497 3.1673V3.7753C55.1297 3.7753 54.903 3.8393 54.7697 3.9673C54.6417 4.08996 54.5777 4.2953 54.5777 4.5833V4.8953H55.4977V5.4953ZM58.2585 9.3513C57.8478 9.3513 57.4745 9.25796 57.1385 9.0713C56.8078 8.88463 56.5465 8.62063 56.3545 8.2793C56.1678 7.93263 56.0745 7.53263 56.0745 7.0793C56.0745 6.6313 56.1705 6.23663 56.3625 5.8953C56.5598 5.54863 56.8265 5.28463 57.1625 5.1033C57.4985 4.91663 57.8745 4.8233 58.2905 4.8233C58.7065 4.8233 59.0825 4.91663 59.4185 5.1033C59.7545 5.28463 60.0185 5.54596 60.2105 5.8873C60.4078 6.22863 60.5065 6.62596 60.5065 7.0793C60.5065 7.53263 60.4051 7.93263 60.2025 8.2793C60.0051 8.62063 59.7358 8.88463 59.3945 9.0713C59.0531 9.25796 58.6745 9.3513 58.2585 9.3513ZM58.2585 8.7113C58.5198 8.7113 58.7651 8.64996 58.9945 8.5273C59.2238 8.40463 59.4078 8.22063 59.5465 7.9753C59.6905 7.72996 59.7625 7.4313 59.7625 7.0793C59.7625 6.7273 59.6931 6.42863 59.5545 6.1833C59.4158 5.93796 59.2345 5.75663 59.0105 5.6393C58.7865 5.51663 58.5438 5.4553 58.2825 5.4553C58.0158 5.4553 57.7705 5.51663 57.5465 5.6393C57.3278 5.75663 57.1518 5.93796 57.0185 6.1833C56.8851 6.42863 56.8185 6.7273 56.8185 7.0793C56.8185 7.43663 56.8825 7.73796 57.0105 7.9833C57.1438 8.22863 57.3198 8.41263 57.5385 8.5353C57.7571 8.65263 57.9971 8.7113 58.2585 8.7113ZM62.1917 5.6073C62.3197 5.35663 62.501 5.16196 62.7357 5.0233C62.9757 4.88463 63.2663 4.8153 63.6077 4.8153V5.5673H63.4157C62.5997 5.5673 62.1917 6.00996 62.1917 6.8953V9.2793H61.4637V4.8953H62.1917V5.6073ZM69.72 4.8153C70.0614 4.8153 70.3654 4.8873 70.632 5.0313C70.8987 5.16996 71.1094 5.38063 71.264 5.6633C71.4187 5.94596 71.496 6.28996 71.496 6.6953V9.2793H70.776V6.7993C70.776 6.36196 70.6667 6.02863 70.448 5.7993C70.2347 5.56463 69.944 5.4473 69.576 5.4473C69.1974 5.4473 68.896 5.56996 68.672 5.8153C68.448 6.0553 68.336 6.40463 68.336 6.8633V9.2793H67.616V6.7993C67.616 6.36196 67.5067 6.02863 67.288 5.7993C67.0747 5.56463 66.784 5.4473 66.416 5.4473C66.0374 5.4473 65.736 5.56996 65.512 5.8153C65.288 6.0553 65.176 6.40463 65.176 6.8633V9.2793H64.448V4.8953H65.176V5.5273C65.32 5.29796 65.512 5.12196 65.752 4.9993C65.9974 4.87663 66.2667 4.8153 66.56 4.8153C66.928 4.8153 67.2534 4.89796 67.536 5.0633C67.8187 5.22863 68.0294 5.4713 68.168 5.7913C68.2907 5.48196 68.4934 5.24196 68.776 5.0713C69.0587 4.90063 69.3734 4.8153 69.72 4.8153ZM75.551 5.7113C75.7004 5.44996 75.919 5.23663 76.207 5.0713C76.495 4.90596 76.823 4.8233 77.191 4.8233C77.5857 4.8233 77.9404 4.91663 78.255 5.1033C78.5697 5.28996 78.8177 5.55396 78.999 5.8953C79.1804 6.2313 79.271 6.6233 79.271 7.0713C79.271 7.51396 79.1804 7.90863 78.999 8.2553C78.8177 8.60196 78.567 8.8713 78.247 9.0633C77.9324 9.2553 77.5804 9.3513 77.191 9.3513C76.8124 9.3513 76.479 9.26863 76.191 9.1033C75.9084 8.93796 75.695 8.7273 75.551 8.4713V9.2793H74.823V3.3593H75.551V5.7113ZM78.527 7.0713C78.527 6.74063 78.4604 6.45263 78.327 6.2073C78.1937 5.96196 78.0124 5.7753 77.783 5.6473C77.559 5.5193 77.311 5.4553 77.039 5.4553C76.7724 5.4553 76.5244 5.52196 76.295 5.6553C76.071 5.7833 75.8897 5.97263 75.751 6.2233C75.6177 6.46863 75.551 6.75396 75.551 7.0793C75.551 7.40996 75.6177 7.70063 75.751 7.9513C75.8897 8.19663 76.071 8.38596 76.295 8.5193C76.5244 8.6473 76.7724 8.7113 77.039 8.7113C77.311 8.7113 77.559 8.6473 77.783 8.5193C78.0124 8.38596 78.1937 8.19663 78.327 7.9513C78.4604 7.70063 78.527 7.4073 78.527 7.0713ZM84.0053 4.8953L81.3653 11.3433H80.6133L81.4773 9.2313L79.7093 4.8953H80.5173L81.8933 8.4473L83.2533 4.8953H84.0053Z" fill="#B2BBBB"/>
<path d="M30.4219 26.5601C31.068 26.5601 31.5885 27.0841 31.5885 27.7347V30.0748H35.8064V26.5601C36.457 26.5601 36.9865 27.0931 36.9865 27.7482V34.9629C36.3359 34.9629 35.8064 34.4298 35.8064 33.7748V31.1184H31.5885V34.9629C30.9424 34.9629 30.4219 34.4389 30.4219 33.7883V26.5601Z" fill="#0F325C"/>
<path d="M42.2738 34.9629C41.6232 34.9629 41.0937 34.4298 41.0937 33.7748V31.3307L37.9707 26.5601C38.8636 26.5601 39.6938 27.0299 40.1604 27.7934L41.7174 30.3549L43.3283 27.7211C43.768 26.9983 44.5533 26.5601 45.3969 26.5601L42.2738 31.3307V34.9629Z" fill="#0F325C"/>
<path d="M46.3736 26.5601H49.2364C49.7704 26.5601 50.3043 26.6414 50.8383 26.7995C51.3723 26.9576 51.8569 27.2061 52.2876 27.5494C52.7184 27.8883 53.0684 28.3265 53.3376 28.855C53.6068 29.3836 53.737 30.0206 53.737 30.766C53.737 31.5114 53.6024 32.1078 53.3376 32.6363C53.0684 33.1649 52.7184 33.5986 52.2876 33.9419C51.8569 34.2853 51.3723 34.5428 50.8383 34.7145C50.3043 34.8861 49.7704 34.9674 49.2364 34.9674H47.4012C46.8313 34.9674 46.3691 34.5021 46.3691 33.9284V26.5601H46.3736ZM47.5403 33.9284H49.0031C49.5056 33.9284 49.9723 33.8561 50.3986 33.7161C50.8248 33.5715 51.1973 33.3682 51.5069 33.0971C51.8165 32.8261 52.0588 32.4963 52.2338 32.0987C52.4088 31.7012 52.494 31.2539 52.494 30.757C52.494 30.26 52.4088 29.7766 52.2338 29.3791C52.0588 28.9815 51.821 28.6517 51.5069 28.3897C51.1973 28.1232 50.8248 27.9244 50.3986 27.7843C49.9678 27.6443 49.5056 27.5765 49.0031 27.5765H47.5403V33.9284Z" fill="#0F325C"/>
<path d="M56.5104 34.9629C55.8643 34.9629 55.3438 34.4389 55.3438 33.7883V26.5601H58.0181C58.4174 26.5601 58.7988 26.6007 59.1623 26.6866C59.5257 26.7679 59.8398 26.9034 60.1091 27.0841C60.3783 27.2648 60.5937 27.5043 60.7507 27.8024C60.9078 28.1006 60.9885 28.462 60.9885 28.8867C60.9885 29.5056 60.8001 30.0025 60.4232 30.382C60.0462 30.7615 59.5571 31.0054 58.9604 31.1048L61.2937 34.9629C60.4187 34.9629 59.611 34.4931 59.1757 33.7251L57.7578 31.2223H56.5104V34.9629ZM56.5104 30.2374H57.852C58.1258 30.2374 58.3815 30.2149 58.6193 30.1652C58.8572 30.1155 59.0636 30.0387 59.2386 29.9348C59.4136 29.8263 59.5527 29.6908 59.6559 29.5191C59.7591 29.3475 59.8084 29.1396 59.8084 28.8821C59.8084 28.6246 59.7591 28.4168 59.6559 28.2452C59.5527 28.0735 59.418 27.9379 59.2475 27.834C59.077 27.7301 58.8796 27.6579 58.6507 27.6127C58.4219 27.5675 58.1841 27.5494 57.9328 27.5494H56.5059V30.2329L56.5104 30.2374Z" fill="#0F325C"/>
<path d="M61.627 34.9629L65.248 26.5601C65.8897 26.5601 66.473 26.9441 66.7288 27.5404L69.8922 34.9629C69.0935 34.9629 68.3711 34.4795 68.0659 33.7341L67.7204 32.8984H63.7583L63.4128 33.7567C63.1167 34.4886 62.4122 34.9674 61.627 34.9674V34.9629ZM64.1711 31.8638H67.2942L65.7371 27.9244L64.1711 31.8638Z" fill="#0F325C"/>
<path d="M73.6973 26.5601H76.2415C76.6902 26.5601 77.0985 26.6052 77.4664 26.6956C77.8344 26.7859 78.1485 26.926 78.4087 27.1157C78.669 27.3055 78.8664 27.5494 79.01 27.8386C79.1536 28.1322 79.2209 28.4846 79.2209 28.8957C79.2209 29.3068 79.1446 29.6773 78.992 29.9754C78.8395 30.2781 78.6286 30.5221 78.3549 30.7118C78.0857 30.9015 77.7626 31.0416 77.3902 31.1319C77.0177 31.2223 76.6139 31.2675 76.1831 31.2675H74.8639V34.9584C74.2178 34.9584 73.6973 34.4344 73.6973 33.7838V26.5601ZM74.8639 30.2736H76.1024C76.385 30.2736 76.6453 30.2465 76.8876 30.1968C77.1254 30.1471 77.3318 30.0658 77.5068 29.9573C77.6818 29.8489 77.8119 29.7089 77.9062 29.5372C78.0004 29.361 78.0453 29.1487 78.0453 28.8957C78.0453 28.6427 77.9959 28.4304 77.8972 28.2587C77.7985 28.087 77.6639 27.9515 77.4978 27.8431C77.3273 27.7347 77.1254 27.6624 76.8921 27.6172C76.6588 27.572 76.403 27.5539 76.1248 27.5539H74.8639V30.2736Z" fill="#0F9AD7"/>
<path d="M80.7129 26.5601C81.359 26.5601 81.8795 27.0841 81.8795 27.7347V30.0748H86.0974V26.5601H86.1109C86.757 26.5601 87.2775 27.0841 87.2775 27.7347V34.9629H87.2641C86.6179 34.9629 86.0974 34.4389 86.0974 33.7883V31.1184H81.8795V34.9629C81.2334 34.9629 80.7129 34.4389 80.7129 33.7883V26.5601Z" fill="#0F9AD7"/>
<path d="M88.5669 34.9629H88.3516L91.9727 26.5601C92.6143 26.5601 93.1976 26.9441 93.4534 27.5404L96.6168 34.9629H96.3745C95.7239 34.9629 95.1361 34.5699 94.8848 33.96L94.4495 32.8938H90.4874L90.0611 33.951C89.8144 34.5609 89.2265 34.9584 88.5714 34.9584L88.5669 34.9629ZM90.9002 31.8638H94.0233L92.4662 27.9244L90.9002 31.8638Z" fill="#0F9AD7"/>
<path d="M109.239 33.0159H109.262L111.101 28.1956C111.478 27.2107 112.421 26.5557 113.471 26.5557C113.511 26.5557 113.542 26.5873 113.542 26.6279V33.8562C113.542 34.4661 113.053 34.9585 112.448 34.9585C112.407 34.9585 112.376 34.9269 112.376 34.8863V27.9381H112.353L109.841 34.317C109.688 34.7101 109.311 34.9676 108.894 34.9676C108.862 34.9676 108.835 34.9495 108.826 34.9224L106.085 27.9426H106.062V33.9014C106.062 34.4887 105.587 34.9676 105.003 34.9676C104.963 34.9676 104.932 34.9359 104.932 34.8953V26.6325C104.932 26.5918 104.963 26.5602 105.003 26.5602C106.053 26.5602 106.996 27.2107 107.377 28.1956L109.244 33.0159H109.239Z" fill="#0F9AD7"/>
<path d="M29.8262 37.6421H30.1448V39.0109H31.8499V37.6421H32.1684V40.7954H31.8499V39.3046H30.1448V40.7954H29.8262V37.6421Z" fill="#0F325C"/>
<path d="M34.0757 40.7954H33.7571V39.4356L32.5859 37.6421H32.9853L33.9276 39.1691L34.8788 37.6421H35.2513L34.0801 39.4356V40.7954H34.0757Z" fill="#0F325C"/>
<path d="M35.6641 37.6421H36.7051C36.898 37.6421 37.0954 37.6737 37.2929 37.7415C37.4903 37.8092 37.6653 37.9041 37.8224 38.0396C37.9794 38.1752 38.1095 38.3378 38.2038 38.5321C38.3025 38.7308 38.3518 38.9567 38.3518 39.2188C38.3518 39.4808 38.3025 39.7112 38.2038 39.91C38.1051 40.1087 37.9794 40.2714 37.8224 40.4024C37.6653 40.5334 37.4858 40.6328 37.2929 40.7006C37.0999 40.7683 36.9025 40.7999 36.7051 40.7999H35.6641V37.6466V37.6421ZM35.9826 40.5108H36.6153C36.8531 40.5108 37.0551 40.4747 37.2345 40.3979C37.4095 40.3256 37.5531 40.2262 37.6698 40.1042C37.7865 39.9822 37.8717 39.8467 37.9301 39.6931C37.9884 39.5395 38.0153 39.3814 38.0153 39.2188C38.0153 39.0561 37.9884 38.898 37.9301 38.7444C37.8717 38.5908 37.7865 38.4508 37.6698 38.3333C37.5531 38.2158 37.4095 38.1164 37.2345 38.0396C37.0596 37.9674 36.8531 37.9267 36.6153 37.9267H35.9826V40.5108Z" fill="#0F325C"/>
<path d="M39.3303 40.7954H39.0117V37.6421H39.9316C40.0841 37.6421 40.2277 37.6556 40.3578 37.6873C40.488 37.7189 40.6046 37.7641 40.6989 37.8318C40.7931 37.8996 40.8694 37.9854 40.9232 38.0939C40.9771 38.2023 41.004 38.3333 41.004 38.4869C41.004 38.6044 40.9816 38.7083 40.9412 38.8031C40.9008 38.898 40.8425 38.9793 40.7707 39.0516C40.6989 39.1239 40.6181 39.1781 40.5194 39.2188C40.4207 39.2594 40.3175 39.2865 40.2008 39.3001L41.1162 40.7999H40.7258L39.8598 39.3272H39.3303V40.7999V40.7954ZM39.3303 39.0471H39.8822C40.138 39.0471 40.3354 39.0019 40.4745 38.907C40.6136 38.8122 40.6809 38.6721 40.6809 38.4869C40.6809 38.383 40.663 38.2972 40.6226 38.2249C40.5822 38.1526 40.5328 38.0939 40.4655 38.0532C40.3982 38.008 40.313 37.9764 40.2188 37.9538C40.12 37.9312 40.0123 37.9222 39.8957 37.9222H39.3303V39.0471Z" fill="#0F325C"/>
<path d="M41.6391 40.7954H41.2891L42.6442 37.6421H42.9538L44.2999 40.7954H43.9454L43.5999 39.9687H41.9801L41.6391 40.7954ZM42.0967 39.675H43.4788L42.7878 37.999L42.0967 39.675Z" fill="#0F325C"/>
<path d="M44.7578 37.6423H45.6418C45.7988 37.6423 45.9469 37.6604 46.077 37.692C46.2071 37.7282 46.3193 37.7779 46.4091 37.8456C46.4988 37.9134 46.5751 38.0037 46.6244 38.1077C46.6738 38.2116 46.7007 38.3381 46.7007 38.4781C46.7007 38.6182 46.6738 38.7446 46.6244 38.8486C46.5706 38.9525 46.4988 39.0428 46.4091 39.1106C46.3193 39.1783 46.2027 39.2326 46.0725 39.2687C45.9424 39.3048 45.7943 39.3229 45.6373 39.3229H45.0809V40.7866H44.7623V37.6333L44.7578 37.6423ZM45.0764 39.0564H45.6148C45.8661 39.0564 46.0546 39.0067 46.1847 38.9073C46.3148 38.8079 46.3777 38.6678 46.3777 38.4781C46.3777 38.2838 46.3104 38.1393 46.1757 38.0489C46.0411 37.9586 45.8527 37.9134 45.6104 37.9134H45.0719V39.0519L45.0764 39.0564Z" fill="#0F325C"/>
<path d="M47.3203 37.6421H47.6389V39.0109H49.344V37.6421H49.6626V40.7954H49.344V39.3046H47.6389V40.7954H47.3203V37.6421Z" fill="#0F325C"/>
<path d="M50.475 40.7954H50.125L51.4801 37.6421H51.7897L53.1358 40.7954H52.7814L52.4359 39.9687H50.816L50.475 40.7954ZM50.9327 39.675H52.3147L51.6237 37.999L50.9327 39.675Z" fill="#0F325C"/>
<path d="M53.9123 40.7954H53.5938V37.6421H54.5136C54.6662 37.6421 54.8098 37.6556 54.9399 37.6873C55.07 37.7189 55.1867 37.7641 55.2809 37.8318C55.3751 37.8996 55.4514 37.9854 55.5053 38.0939C55.5591 38.2023 55.586 38.3333 55.586 38.4869C55.586 38.6044 55.5636 38.7083 55.5232 38.8031C55.4828 38.898 55.4245 38.9793 55.3527 39.0516C55.2809 39.1239 55.2001 39.1781 55.1014 39.2188C55.0027 39.2594 54.8995 39.2865 54.7828 39.3001L55.6982 40.7999H55.3078L54.4418 39.3272H53.9123V40.7999V40.7954ZM53.9123 39.0471H54.4642C54.72 39.0471 54.9174 39.0019 55.0565 38.907C55.1956 38.8122 55.263 38.6721 55.263 38.4869C55.263 38.383 55.245 38.2972 55.2046 38.2249C55.1642 38.1526 55.1149 38.0939 55.0476 38.0532C54.9803 38.008 54.895 37.9764 54.8008 37.9538C54.7021 37.9312 54.5944 37.9222 54.4777 37.9222H53.9123V39.0471Z" fill="#0F325C"/>
<path d="M57.7883 40.2533L58.8383 37.6421H59.3229V40.7954H59.0043V38.0577H58.9953L57.8646 40.7954H57.6985L56.5678 38.0577H56.5588V40.7954H56.2402V37.6421H56.7248L57.7883 40.2533Z" fill="#0F325C"/>
<path d="M63.6413 38.2108C63.5336 38.0934 63.4035 38.003 63.2509 37.9398C63.0983 37.8765 62.9278 37.8449 62.7349 37.8449C62.5419 37.8449 62.3535 37.8811 62.1919 37.9579C62.0304 38.0301 61.8958 38.134 61.7836 38.256C61.6714 38.3825 61.5862 38.5271 61.5234 38.6942C61.465 38.8614 61.4336 39.0331 61.4336 39.2183C61.4336 39.4035 61.465 39.5752 61.5234 39.7423C61.5817 39.9095 61.6714 40.0541 61.7836 40.176C61.8958 40.3025 62.0304 40.4019 62.1919 40.4742C62.3535 40.5465 62.5329 40.5871 62.7349 40.5871C62.9099 40.5871 63.0759 40.5691 63.2195 40.5284C63.3676 40.4878 63.4842 40.4426 63.5784 40.3793V39.4216H62.847V39.137H63.897V40.56C63.7265 40.6639 63.5425 40.7407 63.3451 40.7904C63.1477 40.8401 62.9413 40.8672 62.7304 40.8672C62.4926 40.8672 62.2772 40.8266 62.0753 40.7407C61.8734 40.6594 61.7028 40.542 61.5592 40.3974C61.4157 40.2483 61.3035 40.0766 61.2227 39.8734C61.1419 39.6701 61.1016 39.4487 61.1016 39.2093C61.1016 38.9698 61.1419 38.7485 61.2272 38.5452C61.308 38.3419 61.4246 38.1702 61.5682 38.0211C61.7163 37.872 61.8868 37.7591 62.0842 37.6778C62.2817 37.5964 62.4971 37.5513 62.7304 37.5513C62.9817 37.5513 63.197 37.5874 63.3855 37.6642C63.5695 37.741 63.731 37.8449 63.8611 37.9804L63.6413 38.2018V38.2108Z" fill="#0F325C"/>
<path d="M65.0334 40.7954H64.7148V37.6421H65.6347C65.7873 37.6421 65.9308 37.6556 66.061 37.6873C66.1911 37.7189 66.3078 37.7641 66.402 37.8318C66.4962 37.8996 66.5725 37.9854 66.6264 38.0939C66.6802 38.2023 66.7071 38.3333 66.7071 38.4869C66.7071 38.6044 66.6847 38.7083 66.6443 38.8031C66.6039 38.898 66.5456 38.9793 66.4738 39.0516C66.402 39.1239 66.3212 39.1781 66.2225 39.2188C66.1238 39.2594 66.0206 39.2865 65.9039 39.3001L66.8193 40.7999H66.4289L65.5629 39.3272H65.0334V40.7999V40.7954ZM65.0334 39.0471H65.5853C65.8411 39.0471 66.0385 39.0019 66.1776 38.907C66.3167 38.8122 66.384 38.6721 66.384 38.4869C66.384 38.383 66.3661 38.2972 66.3257 38.2249C66.2853 38.1526 66.236 38.0939 66.1687 38.0532C66.1014 38.008 66.0161 37.9764 65.9219 37.9538C65.8232 37.9312 65.7155 37.9222 65.5988 37.9222H65.0334V39.0471Z" fill="#0F325C"/>
<path d="M70.4569 39.219C70.4569 39.4585 70.4165 39.6798 70.3312 39.8831C70.2504 40.0864 70.1338 40.2581 69.9902 40.4072C69.8466 40.5563 69.6716 40.6692 69.4742 40.7505C69.2767 40.8318 69.0614 40.877 68.828 40.877C68.5947 40.877 68.3793 40.8363 68.1819 40.7505C67.9845 40.6692 67.8095 40.5517 67.6659 40.4072C67.5223 40.2626 67.4056 40.0864 67.3249 39.8831C67.2441 39.6798 67.1992 39.4585 67.1992 39.219C67.1992 38.9796 67.2396 38.7582 67.3249 38.5549C67.4056 38.3516 67.5223 38.18 67.6659 38.0309C67.8139 37.8818 67.9845 37.7688 68.1819 37.6875C68.3793 37.6062 68.5947 37.561 68.828 37.561C69.0614 37.561 69.2767 37.6017 69.4742 37.6875C69.6716 37.7688 69.8466 37.8863 69.9902 38.0309C70.1383 38.18 70.2504 38.3516 70.3312 38.5549C70.412 38.7582 70.4569 38.9796 70.4569 39.219ZM70.1203 39.219C70.1203 39.0338 70.0889 38.8621 70.0306 38.695C69.9722 38.5278 69.887 38.3833 69.7748 38.2568C69.6626 38.1303 69.528 38.0309 69.3665 37.9586C69.205 37.8863 69.0255 37.8456 68.8235 37.8456C68.6216 37.8456 68.4421 37.8818 68.2806 37.9586C68.1191 38.0309 67.9845 38.1348 67.8723 38.2568C67.7601 38.3833 67.6748 38.5278 67.6165 38.695C67.5582 38.8621 67.5268 39.0338 67.5268 39.219C67.5268 39.4042 67.5582 39.5759 67.6165 39.7431C67.6748 39.9102 67.7601 40.0548 67.8723 40.1768C67.9845 40.3033 68.1191 40.4027 68.2806 40.4749C68.4421 40.5472 68.6216 40.5879 68.8235 40.5879C69.0255 40.5879 69.205 40.5517 69.3665 40.4749C69.528 40.4027 69.6626 40.3033 69.7748 40.1768C69.887 40.0503 69.9722 39.9057 70.0306 39.7431C70.0889 39.5759 70.1203 39.4042 70.1203 39.219Z" fill="#0F325C"/>
<path d="M72.2746 40.8723C72.0368 40.8723 71.8439 40.8317 71.6958 40.7504C71.5432 40.6691 71.4266 40.5651 71.3368 40.4387C71.2471 40.3122 71.1888 40.1766 71.1529 40.0321C71.117 39.883 71.1035 39.7474 71.1035 39.6164V37.6377H71.4221V39.5803C71.4221 39.7068 71.4356 39.8333 71.467 39.9507C71.4984 40.0727 71.5433 40.1766 71.6106 40.2715C71.6779 40.3664 71.7631 40.4387 71.8753 40.4974C71.983 40.5561 72.1176 40.5832 72.2791 40.5832C72.4407 40.5832 72.5708 40.5561 72.683 40.4974C72.7907 40.4387 72.8804 40.3619 72.9477 40.2715C73.015 40.1811 73.0599 40.0727 73.0913 39.9507C73.1227 39.8288 73.1362 39.7068 73.1362 39.5803V37.6377H73.4547V39.6164C73.4547 39.7474 73.4368 39.8875 73.4054 40.0321C73.374 40.1766 73.3112 40.3167 73.2214 40.4387C73.1317 40.5651 73.015 40.6645 72.8625 40.7504C72.7099 40.8362 72.517 40.8723 72.2836 40.8723H72.2746Z" fill="#0F325C"/>
<path d="M74.2617 37.6423H75.1457C75.3027 37.6423 75.4508 37.6604 75.5809 37.692C75.711 37.7282 75.8232 37.7779 75.913 37.8456C76.0027 37.9134 76.079 38.0037 76.1283 38.1077C76.1777 38.2116 76.2046 38.3381 76.2046 38.4781C76.2046 38.6182 76.1777 38.7446 76.1283 38.8486C76.0745 38.9525 76.0027 39.0428 75.913 39.1106C75.8232 39.1783 75.7066 39.2326 75.5764 39.2687C75.4463 39.3048 75.2982 39.3229 75.1412 39.3229H74.5848V40.7866H74.2662V37.6333L74.2617 37.6423ZM74.5803 39.0564H75.1188C75.37 39.0564 75.5585 39.0067 75.6886 38.9073C75.8187 38.8079 75.8816 38.6678 75.8816 38.4781C75.8816 38.2838 75.8143 38.1393 75.6796 38.0489C75.545 37.9586 75.3566 37.9134 75.1143 37.9134H74.5758V39.0519L74.5803 39.0564Z" fill="#0F325C"/>
<path d="M101.293 31.1185C101.889 31.0146 102.374 30.7752 102.751 30.3957C103.128 30.0162 103.316 29.5192 103.316 28.9048C103.316 28.4802 103.24 28.1188 103.083 27.8251C102.926 27.5315 102.715 27.292 102.441 27.1113C102.172 26.9306 101.858 26.7996 101.495 26.7138C101.136 26.6325 100.754 26.5918 100.355 26.5918H97.6895V33.8291C97.6895 34.4571 98.192 34.963 98.8157 34.963H98.8516V31.2405H100.095L101.508 33.7342C101.939 34.4977 102.746 34.9676 103.617 34.9676L101.293 31.123V31.1185ZM100.189 30.2556H98.8516V27.5857H100.274C100.525 27.5857 100.763 27.6083 100.992 27.6489C101.221 27.6941 101.418 27.7664 101.584 27.8658C101.75 27.9697 101.889 28.1052 101.988 28.2724C102.091 28.444 102.141 28.6519 102.141 28.9048C102.141 29.1578 102.091 29.3702 101.988 29.5373C101.885 29.709 101.746 29.8445 101.571 29.9529C101.396 30.0614 101.189 30.1382 100.956 30.1833C100.723 30.2285 100.467 30.2556 100.193 30.2556H100.189Z" fill="#0F9AD7"/>
<path opacity="0.3" d="M8.58381 24.035C9.0056 23.8769 9.44534 23.7504 9.90302 23.66C11.2492 23.3935 12.5818 23.4658 13.8203 23.8091C13.8203 23.7504 13.8562 23.6916 13.928 23.6916C15.4984 23.7007 17.0914 24.1027 18.5542 24.9295C18.617 24.9656 18.6798 25.0063 18.7426 25.0469C17.9394 23.9943 16.9119 23.0772 15.6869 22.3815C15.2023 22.1105 14.7042 21.88 14.2017 21.6948C13.6363 21.7039 13.0619 21.7626 12.4876 21.8755C10.953 22.1782 9.57546 22.8288 8.41779 23.7278C8.26074 23.8498 8.39984 24.0982 8.58381 24.0305V24.035Z" fill="#0F9AD7"/>
<path opacity="0.3" d="M19.2911 42.458C20.0046 42.0243 20.6821 41.5093 21.2969 40.8904C23.2981 38.8891 24.3481 36.3004 24.4513 33.6802C24.0206 34.3443 23.5135 34.9722 22.9302 35.555C21.4988 36.9826 19.7892 37.9584 17.9809 38.4825C17.8687 38.5141 17.788 38.374 17.8687 38.2927C18.1514 38.0081 18.4206 37.7009 18.6719 37.3756C18.3623 37.5157 18.0437 37.6422 17.7251 37.7461C16.9848 38.5322 16.0918 39.1872 15.0822 39.648C12.8342 40.6013 10.2945 40.6374 8.01953 39.7655C11.147 42.6478 15.4412 43.5468 19.2911 42.4535V42.458Z" fill="#0F9AD7"/>
<path d="M23.2669 40.7778C23.3567 40.6558 23.2041 40.5022 23.0785 40.5926C18.4433 44.026 11.8697 43.6465 7.66528 39.4496C3.03907 34.828 3.03907 27.3377 7.66528 22.7161L8.36975 22.0159C8.47296 21.912 8.36078 21.7403 8.22617 21.7945C3.66727 23.6919 0.458984 28.1825 0.458984 33.4185C0.458984 40.3712 6.09928 46.0002 13.0543 46.0002C17.2587 46.0002 20.9785 43.9402 23.2669 40.7778Z" fill="url(#paint0_linear_554_4381)"/>
<path opacity="0.3" d="M4.43471 28.7203C3.75716 32.0589 4.52894 35.6324 6.75904 38.4333C5.23791 35.7137 5.63726 32.2125 7.95261 29.904C10.7436 27.112 15.2756 27.112 18.0666 29.904C18.3223 30.1569 18.5512 30.428 18.7576 30.7081C18.8697 30.8572 19.1031 30.7307 19.0403 30.5545C18.6454 29.416 17.9948 28.3499 17.0839 27.4418C13.8756 24.2388 8.67952 24.2388 5.47572 27.4418C5.07637 27.8394 4.72638 28.2686 4.42574 28.7248L4.43471 28.7203Z" fill="#86C8AA"/>
<path d="M25.2632 32.0045C24.985 28.282 22.9075 24.7582 19.412 22.7839C17.5633 21.7404 15.5531 21.257 13.5698 21.2796C13.4531 21.2796 13.4307 21.4467 13.5384 21.4783C14.2698 21.6907 14.9922 21.9934 15.6877 22.3864C16.9172 23.0821 17.9402 23.9947 18.7434 25.0518C21.494 26.6917 23.1363 29.5108 23.3696 32.4924C23.3786 32.6099 23.3562 32.7273 23.3068 32.8313C22.8536 33.78 22.2344 34.6654 21.4492 35.4515C20.619 36.2782 19.6767 36.9243 18.6671 37.3851C18.4159 37.7103 18.1466 38.0175 17.864 38.3022C17.7832 38.3835 17.864 38.5235 17.9761 38.4919C19.7889 37.9678 21.4985 36.992 22.9254 35.5644C23.8901 34.6022 24.6485 33.5089 25.2004 32.3479C25.2497 32.244 25.2722 32.131 25.2632 32.0181V32.0045Z" fill="url(#paint1_linear_554_4381)"/>
<path d="M18.7482 25.0475C21.1218 28.1647 21.5571 32.5152 19.5065 36.1384C19.2552 36.5766 18.977 36.9922 18.6719 37.3762C19.677 36.9154 20.6238 36.2739 21.4539 35.4427C22.2391 34.6566 22.8583 33.7711 23.3115 32.8224C23.3609 32.7185 23.3833 32.601 23.3744 32.4836C23.141 29.5019 21.4988 26.6829 18.7482 25.043V25.0475Z" fill="#0064B5"/>
<path d="M18.7484 25.0472C18.6856 25.0111 18.6228 24.9704 18.56 24.9297C17.0972 24.103 15.5042 23.7009 13.9338 23.6919C13.8081 23.6919 13.7812 23.8681 13.9023 23.9087C14.4453 24.0804 14.9792 24.3108 15.4953 24.6045C19.4933 26.8633 20.8977 31.9321 18.6362 35.9258C18.2369 36.626 17.7523 37.2494 17.2049 37.787C17.16 37.8322 17.2049 37.909 17.2632 37.8955C17.7433 37.7599 18.2145 37.5883 18.6766 37.3804C18.9773 36.9919 19.2599 36.5808 19.5112 36.1426C21.5663 32.5194 21.1266 28.1689 18.7529 25.0517L18.7484 25.0472Z" fill="url(#paint2_linear_554_4381)"/>
<defs>
<linearGradient id="paint0_linear_554_4381" x1="0.458984" y1="33.8928" x2="23.2939" y2="33.8928" gradientUnits="userSpaceOnUse">
<stop stop-color="#7EC39E"/>
<stop offset="0.09" stop-color="#67BAA9"/>
<stop offset="0.26" stop-color="#47AFB9"/>
<stop offset="0.42" stop-color="#2EA5C6"/>
<stop offset="0.6" stop-color="#1D9FCF"/>
<stop offset="0.79" stop-color="#129BD5"/>
<stop offset="1" stop-color="#0F9AD7"/>
</linearGradient>
<linearGradient id="paint1_linear_554_4381" x1="13.4711" y1="29.8857" x2="25.2677" y2="29.8857" gradientUnits="userSpaceOnUse">
<stop stop-color="#7EC39E"/>
<stop offset="0.71" stop-color="#0F9AD7"/>
</linearGradient>
<linearGradient id="paint2_linear_554_4381" x1="13.8216" y1="30.7937" x2="20.817" y2="30.7937" gradientUnits="userSpaceOnUse">
<stop offset="0.12" stop-color="#7EC39E"/>
<stop offset="0.26" stop-color="#76C0A1"/>
<stop offset="0.47" stop-color="#61B8AC"/>
<stop offset="0.72" stop-color="#3EABBE"/>
<stop offset="1" stop-color="#0F9AD7"/>
</linearGradient>
</defs>
</svg>
