<svg width="24" height="25" viewBox="0 0 24 25" fill="none" xmlns="http://www.w3.org/2000/svg">
<path opacity="0.4" d="M12 2.63965C9.38 2.63965 7.25 4.76965 7.25 7.38965C7.25 9.95965 9.26 12.0396 11.88 12.1296C11.96 12.1196 12.04 12.1196 12.1 12.1296C12.12 12.1296 12.13 12.1296 12.15 12.1296C12.16 12.1296 12.16 12.1296 12.17 12.1296C14.73 12.0396 16.74 9.95965 16.75 7.38965C16.75 4.76965 14.62 2.63965 12 2.63965Z" fill="#233043"/>
<path d="M17.0809 14.7895C14.2909 12.9295 9.74094 12.9295 6.93094 14.7895C5.66094 15.6395 4.96094 16.7895 4.96094 18.0195C4.96094 19.2495 5.66094 20.3895 6.92094 21.2295C8.32094 22.1695 10.1609 22.6395 12.0009 22.6395C13.8409 22.6395 15.6809 22.1695 17.0809 21.2295C18.3409 20.3795 19.0409 19.2395 19.0409 17.9995C19.0309 16.7695 18.3409 15.6295 17.0809 14.7895Z" fill="#233043"/>
</svg>
